<?xml version="1.0" encoding="UTF-8" standalone="no"?>
<svg
   xmlns:dc="http://purl.org/dc/elements/1.1/"
   xmlns:cc="http://creativecommons.org/ns#"
   xmlns:rdf="http://www.w3.org/1999/02/22-rdf-syntax-ns#"
   xmlns:svg="http://www.w3.org/2000/svg"
   xmlns="http://www.w3.org/2000/svg"
   viewBox="0 0 462.91061 618.87146"
   height="618.87146"
   width="462.91061"
   version="1.1"
   id="svg4580">
  <metadata
     id="metadata4586">
    <rdf:RDF>
      <cc:Work
         rdf:about="">
        <dc:format>image/svg+xml</dc:format>
        <dc:type
           rdf:resource="http://purl.org/dc/dcmitype/StillImage" />
        <dc:title></dc:title>
      </cc:Work>
    </rdf:RDF>
  </metadata>
  <defs
     id="defs4584" />
  <path
     style="fill:#ffffff;fill-opacity:1"
     d="m 172.41062,614.96387 c -10.45,-2.07517 -19.225,-3.82667 -19.5,-3.89223 -0.275,-0.0656 1.525,-1.27222 4,-2.68148 5.13741,-2.92523 8.6975,-6.01607 10.26691,-8.91362 5.13864,-9.48734 0.43892,-28.48569 -9.73813,-39.36577 -11.47202,-12.26452 -25.81592,-12.04921 -38.23512,0.57394 -4.18315,4.25184 -5.85364,5.29416 -8.5,5.3037 -4.11908,0.0148 -11.91536,2.06164 -17.79881,4.67282 -7.84773,3.48295 -14.66829,12.77595 -17.92612,24.42428 l -1.56873,5.60898 -16.5,-11.41882 c -9.075,-6.28036 -16.63705,-11.80305 -16.80456,-12.27266 -0.16751,-0.46961 1.50276,-4.44841 3.7117,-8.84179 4.38412,-8.71957 12.87344,-18.6745 18.51692,-21.71372 1.96677,-1.05917 3.57594,-2.20836 3.57594,-2.55374 0,-0.34538 -2.73511,-3.61286 -6.07803,-7.26107 l -6.07802,-6.63309 -3.25679,3.4532 c -1.79123,1.89926 -5.4179,4.37956 -8.05926,5.51178 -5.11666,2.19326 -17.35868,5.52812 -17.9603,4.89259 C 23.86799,543.21253 6.91066,507.70718 6.91,507.07271 c -3.4e-4,-0.32789 2.27573,-0.43848 5.05794,-0.24575 2.78221,0.19273 6.52581,0.0752 8.31912,-0.26126 3.85343,-0.72291 13.92883,-7.11176 17.98696,-11.40561 3.02769,-3.20355 5.59258,-11.61488 5.62098,-18.43355 0.0144,-3.45714 0.23938,-3.75 2.88076,-3.75 10.92807,0 17.77652,-22.94028 11.19501,-37.5 -2.07087,-4.58122 -7.32672,-9.91254 -11.21766,-11.37875 l -2.65751,-1.00142 -0.34249,14.36893 c -0.30115,12.63473 -0.59133,14.70196 -2.40428,17.1283 -3.66417,4.90388 -7.03693,6.72896 -13.17477,7.12917 -7.93403,0.51732 -11.91442,-1.72596 -15.51344,-8.74309 -2.71933,-5.30196 -2.74976,-5.57449 -2.72804,-24.43245 l 0.022,-19.07069 1.89954,4.18386 c 5.15121,11.34591 22.33425,13.74666 29.39974,4.10761 2.65074,-3.61624 3.38808,-12.48224 1.36208,-16.3779 -2.54166,-4.88718 -6.21138,-7.60357 -11.00145,-8.14348 -9.3735,-1.05653 -16.35343,5.6176 -15.47171,14.79386 0.26086,2.71483 0.32691,4.93605 0.14677,4.93605 -0.18014,0 -1.06371,-1.42361 -1.96348,-3.16357 -2.14537,-4.14869 -1.49212,-12.89874 1.24139,-16.6279 3.50294,-4.77886 7.77574,-6.20525 18.5932,-6.20698 l 9.74996,-0.002 0,-4.5 0,-4.5 -9.16214,0 c -8.05905,0 -9.69547,-0.31255 -13.59187,-2.59599 -4.4607,-2.61415 -8.18202,-8.45709 -8.21845,-12.90401 -0.03,-3.66614 1.9285,-8.96637 4.43423,-12 l 2.47795,-3 -2.03292,4 c -3.64396,7.16987 -1.04585,15.07191 6.16428,18.74845 6.58766,3.35912 14.62069,1.10476 18.28211,-5.13063 2.56384,-4.3662 2.39762,-13.16691 -0.33209,-17.58368 -5.85747,-9.47759 -22.94783,-8.31041 -28.78494,1.96586 l -2.27208,4 0.26796,-20.17988 c 0.2937,-22.11807 0.4593,-22.7607 7.15308,-27.75833 3.97765,-2.96975 15.28375,-2.9447 19.29155,0.0427 5.44977,4.0623 6.77897,7.8071 7.17917,20.22615 l 0.36513,11.33067 2.63952,-0.65862 c 4.2287,-1.05518 9.19382,-4.54436 11.23879,-7.89796 1.72582,-2.83021 1.89163,-5.31559 1.87502,-28.10477 -0.0163,-22.36746 -0.2175,-25.4389 -1.91069,-29.16806 -2.474,-5.44888 -9.09291,-11.79007 -15.2318,-14.5927 l -4.90486,-2.23924 0.60805,-5 C 40.29029,242.53026 38.52668,229.88011 35.98036,224.62011 33.4675,219.42923 28.10007,213.64978 23.61402,211.30448 18.90139,208.84073 9.28023,209.06023 4.12133,211.7492 L 0,213.89736 6.46484,200.6867 c 3.55566,-7.26586 7.59702,-14.09458 8.9808,-15.17494 4.07575,-3.18205 11.90488,-2.67408 19.54917,1.26838 l 6.26801,3.23267 2.8239,-2.70547 c 1.55314,-1.48801 2.8239,-3.0024 2.8239,-3.36531 0,-0.36291 -2.41292,-4.26478 -5.36205,-8.67081 -5.66396,-8.46202 -7.29284,-13.44248 -5.73581,-17.53778 0.60174,-1.58269 5.17487,-5.26992 12.55567,-10.12339 6.38507,-4.1987 11.81913,-7.634 12.0757,-7.634 0.25657,0 0.46649,2.38665 0.46649,5.30366 0,14.11681 14.07153,27.61542 32,30.69713 9.86911,1.6964 77.21967,0.83648 82.5,-1.05334 3.75006,-1.34214 11.76411,-8.31178 14,-12.17549 0.88024,-1.52109 3.63481,-1.80719 23,-2.3889 12.1,-0.36348 30.775,-0.31445 41.5,0.10894 l 19.5,0.7698 3,4.60054 c 2.18267,3.34715 4.61458,5.42292 8.92629,7.6191 l 5.92629,3.01856 35.88083,0.31816 c 22.68263,0.20112 38.47904,-0.085 42.94438,-0.77779 17.13553,-2.65867 29.64304,-13.91026 32.17639,-28.94546 l 1.18911,-7.05727 10.47835,6.92287 c 12.69443,8.38698 12.79882,8.47598 13.57646,11.57432 1.10125,4.38775 -0.52349,9.04756 -6.01554,17.25275 l -5.37132,8.02483 3.14438,3.04738 3.14438,3.04738 6.46311,-3.20358 c 7.50426,-3.71966 14.05913,-4.22949 18.33741,-1.42625 1.78292,1.16822 4.938,6.21842 9.20603,14.73572 3.5714,7.12711 6.49345,13.17463 6.49345,13.43894 0,0.2643 -1.63615,-0.4848 -3.63589,-1.66468 -5.04052,-2.97398 -14.34876,-2.99943 -19.95879,-0.0546 -5.0613,2.65682 -10.04422,8.2184 -12.73726,14.21643 -1.58578,3.53191 -2.14028,7.29501 -2.4766,16.80751 l -0.43335,12.25671 -4.25146,1.88062 c -5.88672,2.60398 -11.95531,8.35107 -14.69822,13.91954 -2.1653,4.39586 -2.32919,6.07474 -2.64328,27.07738 -0.18416,12.31503 -0.0538,23.88928 0.28979,25.72057 0.82928,4.42041 5.02485,9.24724 10.00369,11.50882 6.58693,2.99202 6.54137,3.05334 6.54137,-8.80462 0,-13.23147 1.92242,-18.21517 8.27684,-21.45696 5.17674,-2.64097 14.35039,-2.25535 18.4866,0.77711 5.57452,4.08694 6.2333,7.02023 6.23501,27.76201 l 0.002,18.89789 -2.25,-3.30594 c -3.73684,-5.49055 -7.09353,-7.35465 -14.01077,-7.78073 -5.28441,-0.3255 -6.77485,-0.0235 -9.73923,1.97323 -9.45215,6.3668 -9.32082,20.99325 0.24086,26.82307 8.73592,5.32671 20.75869,-1.41921 20.75869,-11.64779 0,-2.46896 -0.4949,-5.41373 -1.09977,-6.54395 -0.839,-1.56769 -0.81481,-1.87882 0.10204,-1.31218 1.94455,1.2018 3.99773,7.11633 3.99773,11.51614 0,5.23859 -2.06586,9.16751 -6.66767,12.68077 -3.37851,2.57933 -4.48974,2.82876 -14.00105,3.14271 l -10.33128,0.34103 0,4.40897 0,4.40898 10.04966,0 c 11.11323,0 14.0576,0.96189 18.27066,5.96884 3.69458,4.39075 4.3914,10.63377 1.83255,16.41847 -2.2903,5.17761 -3.61276,6.23038 -1.99427,1.58758 1.33539,-3.83071 0.38456,-9.01466 -2.27318,-12.39342 -6.31633,-8.02992 -18.89331,-7.16153 -23.52494,1.62431 -2.33398,4.42737 -2.19598,12.66796 0.28406,16.96301 5.85994,10.14855 22.50819,8.64216 29.4949,-2.66879 1.84412,-2.98549 1.85302,-2.90811 1.84037,16 -0.0119,17.81713 -0.15176,19.24317 -2.24626,22.90598 -3.1845,5.56898 -6.73626,7.85329 -12.94208,8.32367 -4.11759,0.3121 -6.28976,-0.11257 -9.79147,-1.91429 -6.9577,-3.57991 -7.99658,-6.5775 -7.99845,-23.07878 l -0.002,-13.76342 -3.73635,1.56115 c -8.27675,3.45824 -12.3712,10.22069 -13.04825,21.55067 -0.61419,10.27788 1.64493,18.01064 6.75456,23.12027 2.38822,2.38823 4.7302,3.79475 6.31856,3.79475 2.29401,0 2.58397,0.47801 3.18458,5.25 1.8439,14.65004 5.22069,19.52014 17.84344,25.7343 5.85945,2.88459 7.34158,3.20679 13.0729,2.84184 l 6.4642,-0.41161 -1.32292,3.04274 c -6.10686,14.04742 -16.72954,34.54318 -17.90258,34.54318 -2.26514,0 -14.78975,-4.05343 -18.7519,-6.06881 -1.99331,-1.01392 -4.74401,-3.1743 -6.11265,-4.80084 l -2.48845,-2.95735 -6.88735,7.03054 c -3.78804,3.8668 -6.38591,7.22002 -5.77305,7.4516 7.80442,2.94903 16.27264,12.18657 22.46868,24.50987 l 3.89617,7.74911 -3.23957,2.3897 c -12.90243,9.51756 -30.07867,20.73676 -30.67852,20.03865 -0.39814,-0.46336 -1.30044,-2.86747 -2.0051,-5.34247 -1.66911,-5.86246 -5.26531,-12.90693 -8.63082,-16.90661 -4.53321,-5.38741 -18.46983,-11.09339 -27.09516,-11.09339 -2.60606,0 -4.16891,-0.98258 -7.8895,-4.96018 -13.83483,-14.79056 -31.38092,-13.02979 -42.56312,4.27123 -6.91997,10.70655 -9.71625,24.4676 -6.49659,31.97107 1.67611,3.90622 6.7558,8.79946 12.00521,11.56459 4.63395,2.44093 6.46729,1.79802 -18.88597,6.62279 l -18,3.42543 -3.49552,-2.80409 c -7.05254,-5.65753 -10.56113,-17.85028 -9.0379,-31.4078 0.56198,-5.00198 0.43498,-5.74404 -0.90652,-5.2965 -0.85803,0.28626 -4.26006,1.53813 -7.56006,2.78194 -5.03768,1.89877 -7.92463,2.25665 -18,2.23137 -11.78577,-0.0296 -13.78371,-0.4217 -24.5,-4.80851 -1.28088,-0.52434 -1.5,1.03099 -1.5,10.64731 0,13.77249 -1.63015,18.78306 -8.03023,24.68245 -2.4338,2.2434 -4.77264,4.02498 -5.19743,3.95908 -0.42479,-0.0659 -9.32234,-1.81769 -19.77234,-3.89285 z m 60.98606,-63.94341 c 1.51251,-4.7655 14.25267,-12.06982 28.78175,-16.50147 13.1819,-4.02072 34.99116,-8.24101 54.62431,-10.57029 9.68433,-1.14895 21.15034,-2.7118 25.48001,-3.47298 18.30555,-3.21826 28.71032,-12.91504 34.33552,-31.99918 1.64741,-5.58904 1.78812,-15.43488 2.05431,-143.75 l 0.28577,-137.75 -147.02387,0 -147.02386,0 0.008,134.25 c 0.005,88.14518 0.36478,136.45163 1.04774,140.66079 3.18964,19.65834 12.85019,32.15716 28.65735,37.07691 3.32075,1.03353 12.73139,2.60158 20.91254,3.48455 51.08506,5.51351 87.74751,16.23186 94.17807,27.53318 1.98488,3.4883 2.82966,3.72652 3.68281,1.03849 z m 66.17505,-51.11736 c -0.90842,-1.29695 -1.70074,-1.67145 -2.11572,-1 -1.01367,1.64015 -5.25321,1.27723 -5.9384,-0.50835 -0.33385,-0.86998 -0.60699,-3.53545 -0.60699,-5.92327 0,-8.63779 7.16584,-13.24683 22.09951,-14.21434 l 8.66393,-0.56132 1.61828,-3.39356 c 0.89005,-1.86647 1.61828,-5.77616 1.61828,-8.6882 0,-4.2211 -0.61419,-6.22189 -3.02916,-9.86784 -4.13599,-6.2442 -4.56319,-6.51377 -14.09208,-8.89228 -14.62575,-3.65074 -22.26024,-9.15721 -23.50713,-16.95479 -0.71755,-4.48736 -1.37821,-4.65762 -10.76103,-2.77327 -3.99884,0.80308 -6.51371,1.98713 -8.34771,3.93026 l -2.62475,2.78092 -2.45393,-1.93026 c -4.5162,-3.55244 -18.17393,-1.72659 -19.85505,2.65435 -0.46166,1.20306 1.07255,3.25827 5.44582,7.29516 7.03613,6.49493 8.22502,8.51043 8.22502,13.9437 0,5.17783 -2.45625,8.07692 -7.5,8.85221 -9.06075,1.39275 -32.82416,15.892 -37.94187,23.15024 -2.80067,3.97209 -3.09332,4.14304 -3.57794,2.09014 -0.29029,-1.22967 -1.69336,-3.10598 -3.11793,-4.16958 -2.58023,-1.92642 -2.61072,-1.92425 -7.9762,0.56642 -10.36978,4.81369 -14.17056,4.53806 -18.10426,-1.3129 -1.29421,-1.925 -3.89885,-4.23321 -5.78809,-5.12936 l -3.43498,-1.62937 3.62063,-3.62063 c 1.99135,-1.99135 4.39574,-3.62064 5.34308,-3.62064 1.41768,0 1.50218,-0.26541 0.47756,-1.5 -0.68469,-0.825 -2.08979,-1.5 -3.12244,-1.5 -1.03266,0 -1.87756,-0.69545 -1.87756,-1.54545 0,-2.10737 4.49474,-6.44942 6.70455,-6.47679 1.52508,-0.0189 1.43972,-0.29582 -0.5669,-1.83904 l -2.36235,-1.81681 2.74721,-2.16096 c 4.54766,-3.57719 7.74369,-2.85153 14.40247,3.27008 12.24347,11.25578 19.4675,12.06737 31.394,3.52699 8.62182,-6.17396 8.58094,-9.52972 -0.23363,-19.17425 -5.41106,-5.92057 -8.08535,-11.00948 -8.08535,-15.38563 0,-8.37914 7.20379,-18.51877 15.77709,-22.2069 7.30125,-3.14091 19.58817,-4.30478 37.47291,-3.54958 l 15.75,0.66505 0,-3.08055 c 0,-2.3407 -0.90063,-3.82679 -3.75,-6.18771 -4.93691,-4.0906 -11.34295,-5.74264 -24.90153,-6.42178 -30.22774,-1.51409 -53.54762,-11.34162 -60.62795,-25.55 l -2.44729,-4.91105 -2.88661,1.76013 c -3.68246,2.2454 -5.34393,4.27788 -6.24199,7.63584 l -0.71659,2.67946 -3.2603,-2.74336 c -3.14612,-2.64728 -3.31075,-2.6776 -4.70087,-0.86553 -0.79232,1.03281 -1.96969,3.57191 -2.61639,5.64244 l -1.1758,3.7646 -2.36824,-3.97136 c -1.51052,-2.53304 -2.88131,-3.77447 -3.7849,-3.42773 -1.44255,0.55356 -6.06025,6.07182 -8.20678,9.80729 -1.08353,1.88559 -1.24468,1.69787 -1.87781,-2.1874 -0.38091,-2.3375 -0.8824,-4.25 -1.11442,-4.25 -1.13529,0 -7.09618,3.48025 -9.19243,5.36697 l -2.3699,2.13303 0.42276,-3.78134 c 0.34974,-3.12823 0.15455,-3.66581 -1.1301,-3.11248 -8.26267,3.55897 -13.3245,2.82297 -16.54651,-2.4059 -1.85452,-3.00962 -2.30786,-3.21234 -5.99066,-2.67886 l -3.98431,0.57715 2.91038,-3.03778 c 1.60071,-1.67078 3.75484,-3.3058 4.78696,-3.63338 2.97124,-0.94304 0.17971,-3.42741 -3.85116,-3.42741 -1.85766,0 -3.37756,-0.42071 -3.37756,-0.9349 0,-2.90649 2.3806,-6.21258 5.69952,-7.91529 l 3.78358,-1.94109 -4.76653,-2.31576 -4.76653,-2.31576 3.27498,-1.71329 c 4.6339,-2.42419 12.06598,-3.31198 14.93779,-1.78437 1.28545,0.68377 4.51671,3.07648 7.18058,5.31713 4.55224,3.829 5.2866,4.09628 12.21641,4.44622 7.46282,0.37685 17.8535,-1.93884 24.79128,-5.52504 l 2.85108,-1.47375 -2.33402,-2.48446 c -4.21255,-4.48405 -8.67397,-6.65283 -12.4313,-6.0431 l -3.43684,0.55772 0,-4.89277 0,-4.89277 -4.12573,1.45564 c -5.21377,1.83952 -4.87191,1.93005 -4.88792,-1.29436 -0.008,-1.5125 -0.29503,-3.80085 -0.63892,-5.08523 -0.54182,-2.02356 -1.06193,-2.25331 -3.89708,-1.72143 l -3.27181,0.61379 1.41073,-4.6875 c 2.84239,-9.44454 1.62788,-13.28816 -4.84695,-15.33937 -4.53532,-1.43679 -5.74232,-3.43661 -5.74232,-9.51418 0,-6.13524 -1.92637,-9.54438 -7.0065,-12.39958 l -4.20257,-2.36197 2.45195,-2.45196 c 1.48683,-1.48682 4.08648,-2.67119 6.60454,-3.00893 2.93962,-0.39429 4.14811,-1.02969 4.13727,-2.17531 -0.0255,-2.69906 -1.49845,-4.18684 -5.51046,-5.56611 l -3.82584,-1.31526 4.77864,-1.01918 c 2.95961,-0.63123 5.97411,-0.67633 7.9192,-0.11848 1.72731,0.49538 3.48104,0.9007 3.89717,0.9007 1.44966,0 0.74185,-2.3868 -1.37652,-4.6417 l -2.13311,-2.2706 3.88311,1.06812 c 5.515,1.517 10.49098,4.22943 13.32109,7.2614 2.14697,2.30009 2.5184,3.87169 3.11168,13.16622 0.63352,9.92475 0.95195,11.11485 5.33808,19.95026 3.55232,7.1558 6.38666,11.15661 11.88832,16.78098 3.97317,4.06179 8.4138,8.14816 9.86806,9.08082 3.25286,2.08617 7.85057,1.30288 7.19156,-1.22518 -0.37591,-1.44206 0.51716,-1.67085 6.53504,-1.67423 3.83375,-0.002 7.28718,-0.32065 7.6743,-0.70777 0.38712,-0.38712 -0.54402,-2.18536 -2.06919,-3.99609 l -2.77304,-3.29223 4.89861,-0.64293 c 2.69423,-0.35361 6.23667,-1.1682 7.87207,-1.81021 l 2.97346,-1.16728 -4.29335,-1.92219 c -4.18052,-1.87167 -4.84157,-3.95739 -1.25428,-3.95739 2.58851,0 12.98638,-5.42161 17.37973,-9.06206 4.08827,-3.38765 7.04169,-8.39414 8.22222,-13.93794 l 0.74531,-3.5 -4.37328,4.62465 c -4.97945,5.26567 -8.62022,7.36196 -15.44069,8.89046 -7.19158,1.61167 -9.5031,0.69122 -12.68258,-5.05025 -1.5125,-2.73125 -2.75,-5.19067 -2.75,-5.46538 0,-0.27471 2.29449,-0.49948 5.09887,-0.49948 8.66084,0 13.90113,-3.89203 13.90113,-10.32455 0,-2.98265 -2.47669,-6.35347 -6.01104,-8.18116 -3.23706,-1.67395 -13.73099,-2.00226 -18.67524,-0.58426 l -3.17308,0.91002 -2.57032,-6.42054 c -1.41368,-3.53131 -2.57032,-6.5873 -2.57032,-6.79111 0,-0.20381 4.19094,-0.68477 9.31321,-1.0688 8.91088,-0.66808 9.42284,-0.83565 11.85119,-3.879 1.3959,-1.74942 4.96746,-4.52623 7.9368,-6.17068 4.9848,-2.76064 6.16563,-2.98992 15.3988,-2.98992 8.86022,0 10.68387,0.3194 16,2.80226 6.7584,3.15647 12.79003,8.49473 15.47688,13.69774 0.99408,1.925 2.97509,7.329 4.40224,12.0089 1.42716,4.67989 3.30121,9.51739 4.16456,10.75 1.9375,2.76616 1.45031,2.78884 -3.68042,0.17134 -2.23139,-1.13837 -4.29268,-1.83416 -4.58064,-1.5462 -1.28711,1.28711 1.07836,9.8142 3.7429,13.49249 l 2.92773,4.04161 -3.38619,0.63526 -3.38618,0.63525 1.40956,3.37356 c 2.01776,4.82918 1.74066,13.57451 -0.71895,22.68994 -1.68078,6.22906 -1.89563,8.39944 -1.02143,10.3181 1.29704,2.84671 1.17076,2.88312 -3.39033,0.97737 -3.37046,-1.40827 -3.52893,-1.37156 -5.21788,1.20874 -1.11944,1.71022 -1.68814,4.36582 -1.59153,7.43183 l 0.15031,4.77072 -4.33049,-2.97945 c -2.38177,-1.6387 -4.52839,-2.97946 -4.77026,-2.97946 -0.24188,0 -0.68745,2.1375 -0.99017,4.75 -1.17446,10.13592 3.58443,20.88551 11.44208,25.84582 7.10154,4.483 17.60708,8.31111 26.92415,9.81086 10.54784,1.69787 17.48164,5.14775 23.04165,11.46425 l 3.90679,4.43834 3.99185,-1.19599 c 2.19552,-0.65779 4.62179,-2.18988 5.39172,-3.40463 2.26178,-3.56857 2.85486,-10.22186 1.58322,-17.76099 -1.33707,-7.92706 -4.17863,-12.80193 -13.83498,-23.7348 -12.39323,-14.03154 -19.15619,-27.0787 -19.15619,-36.95629 0,-12.67069 13.18234,-25.21265 26.5,-25.21265 6.76195,0 12.02908,2.60732 18.98382,9.39732 6.81451,6.65309 9.54095,6.8977 11.65701,1.04583 1.0547,-2.9167 1.4917,-3.28311 2.59716,-2.17766 0.731,0.73101 1.59594,2.97349 1.92209,4.98331 0.52029,3.20617 0.179,4.06689 -2.78354,7.02003 -1.8571,1.8512 -4.0294,3.58076 -4.82735,3.84347 -1.24077,0.4085 -1.20458,0.99655 0.25,4.06185 0.93545,1.9713 1.70081,4.54313 1.70081,5.71518 0,3.10855 -2.40167,8.27957 -4.86472,10.47422 -1.88756,1.68186 -2.60732,1.76768 -6.0855,0.72559 -5.0565,-1.51496 -9.79572,-6.26189 -10.61575,-10.633 -0.63967,-3.40977 -0.66166,-3.42189 -6.09425,-3.357 -6.22175,0.0743 -8.84237,-1.60186 -9.87826,-6.31826 -0.83569,-3.80488 -0.151,-4.42114 2.69632,-2.4268 3.09242,2.16602 6.42829,2.01587 8.84216,-0.398 4.12957,-4.12957 1.4709,-9.61568 -5.12597,-10.57733 -7.21678,-1.05203 -12.87453,5.30979 -12.87324,14.47521 0.001,9.46979 3.88531,16.02048 22.54678,38.02724 8.5579,10.092 13.40682,22.96162 13.43765,35.66516 0.028,11.53244 -7.86724,22.68523 -17.98855,25.41062 l -3.6951,0.99498 -0.60627,10.70605 c -0.54177,9.5668 -0.39517,11.04762 1.3776,13.91603 1.99174,3.2227 8.14899,7.67515 15.22215,11.00749 l 3.79505,1.78794 -4.00046,2.0433 -4.00045,2.04331 5.37407,11.06684 c 2.95573,6.08676 6.98566,13.17816 8.9554,15.75865 1.96974,2.5805 3.57966,5.47542 3.5776,6.43316 -0.01,4.56596 -7.89795,12.50811 -15.78029,15.88833 -1.80622,0.77456 -3.77734,2.49099 -4.38027,3.81428 l -1.09624,2.40599 -2.80517,-2.07395 c -3.72633,-2.755 -9.48135,-1.99545 -16.11216,2.12649 -5.87012,3.64907 -6.27527,3.69905 -8.16102,1.00677 z m -66.48861,-255.22552 -0.34191,-4.29896 -4.66529,1.51449 -4.6653,1.51449 5,2.64338 c 2.75,1.45385 5.00324,2.70687 5.00721,2.78447 0.004,0.0776 -0.14666,-1.79344 -0.33471,-4.15787 z m -26.6725,21.3728 c -14.24426,-0.6391 -18.21933,-2.06219 -22.48211,-8.04871 -3.04714,-4.27932 -2.51785,-5.49724 1.35014,-3.10669 2.73415,1.6898 5.00013,2.08156 12.03984,2.08156 9.4943,0 13.12123,1.27445 19.59213,6.8844 1.925,1.66887 3.275,2.97546 3,2.90352 -0.275,-0.0719 -6.35,-0.39328 -13.5,-0.71408 z m -55,336.15183 c -2.2,-0.86898 -4.17239,-1.71013 -4.38308,-1.86923 -0.2107,-0.1591 1.0268,-1.89504 2.75,-3.85765 3.55347,-4.04719 3.85682,-6.0205 1.45305,-9.45236 -1.51343,-2.16071 -1.51963,-2.33702 -0.0625,-1.77789 0.88962,0.34138 3.55813,1.13961 5.93003,1.77385 5.95844,1.59326 6.81255,2.54958 6.81255,7.6278 0,3.50094 -0.55271,4.93754 -2.64602,6.87756 -3.01716,2.79621 -4.27248,2.88257 -9.85398,0.67792 z m 151.52517,-1.04666 c -5.79989,-5.79988 -3.38225,-11.9421 5.73236,-14.56356 5.07617,-1.45996 5.22278,-1.44718 4.25,0.37047 -1.71073,3.19653 -1.1339,5.80056 2.10104,9.48495 l 3.10856,3.54046 -3.41394,1.42643 c -7.21915,3.01636 -8.53175,2.98752 -11.77802,-0.25875 z m 137.08922,-375.47225 -2.38178,-5.79324 2.21268,-2.35528 c 4.29645,-4.57337 9.93708,-4.11765 12.98556,1.04913 l 2.0017,3.39263 -3.79196,0 c -4.31001,0 -7.74759,2.89748 -8.30484,7 -0.28088,2.06791 -0.75124,1.49871 -2.72136,-3.29324 z m -420.10174,1.32377 c -1.50721,-3.63871 -3.70591,-5.03053 -7.94691,-5.03053 -3.55311,0 -3.63304,-0.23105 -1.39222,-4.02445 2.01897,-3.41785 4.22449,-4.11861 8.89971,-2.82772 5.13262,1.41719 6.25066,4.53788 3.72015,10.38375 l -1.99378,4.60592 -1.28695,-3.10697 z m 96.23388,-63.184 c -1.6407,-1.6407 -1.58523,-4.32054 0.11871,-5.73469 2.26546,-1.88016 28.20605,-7.91663 43.13476,-10.0376 24.04491,-3.41615 44.99947,-4.34982 85.34665,-3.80278 39.89488,0.54092 54.39471,1.71772 76.15335,6.18062 6.325,1.29732 14.65,3.41382 18.5,4.70334 5.7697,1.9325 7.05882,2.7603 7.33466,4.70992 0.57944,4.09531 -0.97769,4.31172 -11.91123,1.65548 -25.43782,-6.17998 -55.72551,-8.81375 -101.42343,-8.81963 -47.54673,-0.006 -80.10387,3.38078 -113.80393,11.83896 -1.21165,0.3041 -2.76394,-0.008 -3.44954,-0.69362 z M 72.3423,161.74414 c -2.69846,-2.12261 -6.36885,-8.90717 -6.40972,-11.84808 -0.0121,-0.86926 2.00304,-3.03473 4.47804,-4.81214 l 4.5,-3.23165 0.004,2.81213 c 0.005,3.67379 3.33421,9.05337 6.49396,10.49305 1.37627,0.62706 2.5023,1.43126 2.5023,1.7871 0,0.35585 -1.99921,2.05616 -4.44269,3.77849 l -4.44269,3.1315 -2.68294,-2.1104 z m 310.8127,-0.93686 c -3.87245,-2.68266 -5.39461,-4.79664 -3.49438,-4.85298 2.21251,-0.0656 5.64613,-4.24006 7.15594,-8.69991 l 1.71662,-5.07075 4.10452,3.40945 c 3.98515,3.31029 4.07464,3.51767 3.07704,7.1307 -1.07573,3.89599 -3.6854,7.78087 -6.59651,9.81989 -1.42373,0.99722 -2.4476,0.69908 -5.96323,-1.7364 z M 117.50771,150.36895 c -0.29331,-0.76436 3.0131,-4.34239 7.94775,-8.60064 8.35745,-7.21189 9.63764,-8.7768 7.20516,-8.8076 -6.27073,-0.0794 -25.35374,-2.18791 -26.0434,-2.87757 -1.31368,-1.31368 -0.0641,-1.80183 12.93013,-5.05109 31.47566,-7.87065 59.6056,-11.10346 102.43191,-11.7719 49.90499,-0.77893 84.78063,2.45974 122.23161,11.35084 15.7344,3.73544 13.7773,5.23773 -9.25071,7.10092 l -9.45046,0.76463 9.20046,7.94399 c 5.06025,4.36919 9.20046,8.53169 9.20046,9.25 0,1.62323 0.71931,1.67684 -9.24124,-0.68878 -55.80006,-13.25249 -152.12351,-12.86561 -208.95909,0.83928 -6.18757,1.49202 -7.79899,1.59966 -8.20258,0.54792 z m 30.40291,-7.39241 c 1.1,-1.1 2,-2.675 2,-3.5 0,-0.825 -0.9,-2.4 -2,-3.5 -1.1,-1.1 -2.675,-2 -3.5,-2 -2.0155,0 -5.5,3.593 -5.5,5.67126 0,2.30539 2.92477,5.32874 5.15499,5.32874 1.01475,0 2.74501,-0.9 3.84501,-2 z m 172.54802,-1.43294 c 1.23203,-1.88032 1.34563,-2.89726 0.50013,-4.47708 -2.48544,-4.64409 -8.43204,-4.39292 -9.63675,0.40702 -1.39529,5.55927 6.00178,8.85442 9.13662,4.07006 z m -138.81601,-4.90409 c 5.97302,-3.05778 8.55628,-6.33032 8.09065,-10.24944 -0.51702,-4.35165 -4.8079,-6.79081 -12.73399,-7.23868 -9.49185,-0.53634 -17.36095,1.86214 -22.29392,6.79511 -4.35065,4.35065 -4.73629,6.79688 -1.54424,9.79566 3.6654,3.44346 6.79878,4.24508 15.24949,3.90126 6.27664,-0.25536 9.12708,-0.90246 13.23201,-3.00391 z m -19.23201,-0.3154 c -5.8277,-1.33964 -7.60721,-2.6167 -7.30261,-5.24068 0.4685,-4.03601 8.26132,-7.49424 17.91003,-7.94797 14.5971,-0.68643 18.88805,5.63729 7.18249,10.5851 -4.89251,2.068 -14.19633,3.42962 -17.78991,2.60355 z m 142.62948,1.08547 c 9.91113,-5.12524 2.42694,-15.72229 -13.05837,-18.48967 -5.30384,-0.94785 -7.88005,-0.94879 -11.81703,-0.004 -15.91789,3.81864 -10.35048,16.81962 8.74592,20.42339 4.09007,0.77186 12.95689,-0.28879 16.12948,-1.9294 z m -19.62948,-2.36811 c -3.90856,-0.95153 -8.80994,-3.52853 -10.43471,-5.48626 -3.45772,-4.1663 4.0045,-8.13751 13.6101,-7.24296 14.06192,1.30956 22.38904,8.65029 13.85673,12.21532 -3.62351,1.514 -11.89849,1.76368 -17.03212,0.5139 z m -83.45718,2.91215 c 3.32217,-1.77797 4.31814,-4.77723 2.5052,-7.54414 -1.84775,-2.82002 -5.10058,-3.14785 -7.71928,-0.77795 -2.38279,2.15639 -2.31989,4.85386 0.17126,7.34501 2.31007,2.31007 2.48777,2.3445 5.04282,0.97708 z m 62.54914,-2.47708 c 1.51741,-2.31587 1.51741,-2.68413 0,-5 -2.64364,-4.03469 -9.59196,-2.48655 -9.59196,2.13717 0,5.49935 6.57805,7.46264 9.59196,2.86283 z m -13.34196,-8.2284 c 0.9625,-0.27767 1.75,-0.8334 1.75,-1.23494 0,-0.40154 -5.10717,-3.08674 -11.34927,-5.96711 l -11.34926,-5.23703 -11.15074,5.23033 c -6.1329,2.87668 -11.15073,5.51848 -11.15073,5.87068 0,0.35219 5.04544,2.92719 11.21209,5.72222 l 11.21209,5.08187 9.53791,-4.48058 c 5.24585,-2.46431 10.32541,-4.70776 11.28791,-4.98544 z m -29.24623,2.06492 -7.49622,-3.4991 7.38077,-3.41871 c 4.05943,-1.88029 7.84684,-3.41871 8.41647,-3.41871 1.53227,0 14.70092,6.19592 14.66091,6.89804 -0.0352,0.61805 -14.06657,7.21569 -14.9657,7.03697 -0.275,-0.0547 -3.8733,-1.67398 -7.99623,-3.59849 z m -77.5699,2.33549 c 3.68853,-2.69711 1.31146,-9.67201 -3.29626,-9.67201 -2.31458,0 -5.13761,3.07617 -5.13761,5.59828 0,2.20088 3.27767,5.40172 5.53138,5.40172 0.5975,0 1.90362,-0.59759 2.90249,-1.32799 z M 323.4705,129.5255 c 1.97311,-3.01135 1.11597,-6.2839 -2.02012,-7.7128 -4.86281,-2.21564 -9.09696,3.13831 -6.09964,7.7128 2.11732,3.23143 6.00244,3.23143 8.11976,0 z m -120.13131,-5.12039 c 2.18431,-2.18431 1.9616,-5.76549 -0.49691,-7.99042 -1.88835,-1.70893 -2.3017,-1.74126 -4.75,-0.37156 -3.24601,1.81597 -3.96632,5.40889 -1.60703,8.01588 2.10551,2.32656 4.74043,2.45962 6.85394,0.3461 z m 60.57143,-0.42857 c 1.1,-1.1 2,-2.57487 2,-3.27749 0,-2.26433 -3.05583,-5.72251 -5.0567,-5.72251 -2.30195,0 -5.9433,3.36975 -5.9433,5.5 0,1.93827 3.56173,5.5 5.5,5.5 0.825,0 2.4,-0.9 3.5,-2 z m -155.63036,21.62791 -6.13036,-1.12791 3.03053,-5.34497 c 2.81329,-4.9618 3.24379,-5.30231 6.00536,-4.75 1.63616,0.32724 6.18108,0.61455 10.09983,0.63847 l 7.125,0.0435 -6.5,5.94005 c -3.575,3.26703 -6.725,5.89252 -7,5.83442 -0.275,-0.0581 -3.25866,-0.6132 -6.63036,-1.23356 z m 231.23048,-5.01043 -5.89988,-5.30455 4.78945,-0.65646 c 2.6342,-0.36106 7.09242,-0.65647 9.90716,-0.65647 5.01566,0 5.17335,0.0921 7.90784,4.61925 1.53458,2.54059 2.62198,4.78742 2.41645,4.99294 -0.44908,0.44909 -10.52704,2.40416 -12.10763,2.34883 -0.61243,-0.0214 -3.76846,-2.42604 -7.01339,-5.34354 z M 97.9214,124.48953 c -1.85541,-2.23563 -0.41811,-6.10935 2.7265,-7.34831 9.82927,-3.87269 36.56577,-9.9585 57.26272,-13.03423 26.68888,-3.96618 36.82689,-4.606118 73.16454,-4.618398 19.61549,-0.007 35.52454,-0.153 35.35344,-0.32528 -0.1711,-0.17227 -2.61394,-0.9207 -5.42853,-1.66317 -9.23512,-2.43618 -20.43337,-10.60016 -27.14488,-19.78973 l -2.75056,-3.76612 -3.66139,4.98781 c -10.89551,14.84265 -23.91852,20.79655 -43.44635,19.86291 -8.04983,-0.38487 -9.82686,-0.85138 -17.19863,-4.51503 l -8.22122,-4.08582 -4.82056,4.74512 c -11.88537,11.699378 -30.95743,16.861318 -45.91436,12.426948 -7.11287,-2.1088 -11.19948,-4.2456 -18.45729,-9.650918 -5.07525,-3.77985 -6.51662,-4.38198 -9.57891,-4.00162 -3.03626,0.37713 -3.95193,0.006 -5.80653,-2.35143 -2.45865,-3.12567 -2.16495,-6.98099 0.69827,-9.16583 1.55111,-1.1836 1.492,-1.62994 -0.78405,-5.92032 -1.35389,-2.55212 -4.63202,-7.01498 -7.28473,-9.91747 l -4.82311,-5.27725 -2.05174,2.05174 c -1.5511,1.5511 -2.80335,1.90142 -5.13196,1.4357 -7.37221,-1.47444 -9.23519,-8.91471 -3.63453,-14.51537 4.15831,-4.1583 9.73978,-4.51742 15.73024,-1.0121 3.92321,2.29566 4.19284,2.33486 4.19284,0.6095 0,-1.7706 4.23748,-5.67432 6.15946,-5.67432 4.36253,0 8.04898,11.07852 7.67784,23.0734 -0.20542,6.63872 0.0943,8.13412 2.42833,12.11688 3.87203,6.60713 12.73015,14.29929 18.97283,16.47552 3.59883,1.25457 8.11242,1.8342 14.28293,1.8342 8.17788,0 9.6456,-0.30731 15.69736,-3.28675 3.97223,-1.95563 8.21602,-5.03549 10.47861,-7.60469 3.49284,-3.96616 4.35254,-4.39694 10.55228,-5.28754 6.5157,-0.936 6.89696,-0.87098 11,1.87571 9.7796,6.54674 24.01146,7.57724 35.02312,2.53593 6.64319,-3.04135 15.11572,-10.61365 17.83134,-15.93672 2.74306,-5.37683 5.1503,-16.62636 4.40636,-20.59185 -0.84809,-4.52074 1.54106,-8.20409 5.32146,-8.20409 5.16774,0 6.2726,1.76923 6.57896,10.53503 0.36613,10.47577 3.23478,17.82194 9.73802,24.93752 12.20574,13.35502 29.95897,15.8655 46.43589,6.5665 4.54434,-2.56466 5.76442,-2.81773 11.20592,-2.32431 5.65592,0.51286 6.48654,0.92017 11.26082,5.52196 7.00891,6.75569 14.39528,10.00413 24.01365,10.56093 13.20756,0.76457 22.96117,-3.45905 30.70823,-13.29763 6.29071,-7.98906 6.67169,-9.10425 6.36009,-18.61692 -0.31476,-9.60922 0.85662,-15.32951 3.94247,-19.25253 3.49389,-4.44177 6.66602,-3.4915 10.47247,3.13722 0.0846,0.14728 2.13327,-0.63034 4.55266,-1.72804 5.29138,-2.40073 9.00578,-2.55294 12.91892,-0.52938 3.61722,1.87054 4.97998,4.31254 4.97998,8.92391 0,6.39949 -6.42329,9.75927 -11.65382,6.09566 -1.97386,-1.38254 -2.42533,-1.12777 -7.58257,4.27906 -5.38499,5.6456 -8.76361,10.812 -8.76361,13.40081 0,0.72002 0.92597,1.88739 2.05771,2.59418 1.58674,0.99093 1.98728,2.12599 1.75,4.95913 -0.39346,4.69791 -4.14663,7.20811 -8.48964,5.67804 -2.4613,-0.86713 -3.10495,-0.65236 -5.08409,1.69642 -3.21456,3.81492 -11.74263,9.211498 -18.52149,11.720418 -7.59476,2.8109 -18.66262,2.85976 -28.52792,0.12595 -8.26882,-2.29141 -13.43562,-5.26785 -20.3155,-11.703168 l -4.78489,-4.4757 -5.29209,3.00401 c -6.80073,3.86038 -14.69901,6.15761 -21.72359,6.31835 l -5.5685,0.12743 6,0.821218 c 3.3,0.45168 12.3,1.55586 20,2.45375 17.48191,2.03854 39.7872,6.41604 53.43727,10.48727 12.87771,3.84087 14.06273,4.46408 14.06273,7.39565 0,4.68223 -1.78601,4.811 -16.23924,1.17082 -29.99008,-7.55329 -62.99603,-11.4336 -104.26076,-12.25733 -48.0234,-0.95864 -90.25506,3.57383 -132.68122,14.23988 -11.34711,2.8527 -12.17897,2.90974 -13.808,0.94688 z m 2.70882,-39.210948 -7.7804,-1.49638 4.71576,-4.15283 c 2.59367,-2.28406 5.78105,-4.99163 7.08307,-6.01683 4.24925,-3.34586 1.6264,-2.84156 -6.51754,1.25314 l -7.98647,4.01552 0.91088,-4.20233 c 3.52301,-16.25323 6.93644,-22.93169 12.42465,-24.30914 3.6411,-0.91386 5.71171,0.55558 6.93709,4.923 0.79741,2.84211 1.32435,3.40184 2.50177,2.65745 2.56095,-1.61909 8.54553,-1.12401 10.3366,0.8551 2.4623,2.72081 2.06163,7.53455 -0.92231,11.08075 l -2.5773,3.06295 2.60128,1.18522 c 5.00596,2.28087 4.75429,8.48896 -0.44962,11.09079 -4.19293,2.09636 -10.57256,2.11243 -21.27746,0.0536 z m 240.2804,-0.0119 c -4.66139,-2.38415 -5.3754,-7.06309 -1.53841,-10.08126 l 2.57105,-2.02239 -3.01632,-3.01632 c -3.65489,-3.65489 -4.11602,-8.86498 -1.03166,-11.65629 1.56996,-1.42079 3.0098,-1.67468 6.89068,-1.21505 4.30297,0.50962 4.85073,0.36967 4.45632,-1.13857 -0.24733,-0.94579 0.0157,-2.94376 0.58457,-4.43994 0.88286,-2.32208 1.6083,-2.72032 4.95543,-2.72032 3.19913,0 4.46503,0.61944 6.87484,3.36406 2.56162,2.91753 7.67218,13.63174 9.67888,20.29162 l 0.64953,2.15569 -7.57555,-2.40569 c -4.16655,-1.32312 -8.12091,-2.40236 -8.78746,-2.39831 -0.66654,0.004 2.34325,2.36004 6.68843,5.23553 l 7.90033,5.22816 -8.40033,2.67071 c -12.11916,3.85304 -16.65571,4.31936 -20.90033,2.14837 z m -194.76454,-5.32668 c -4.33936,-1.74332 -4.8452,-8.52097 -0.83576,-11.19815 3.78591,-2.52792 9.61415,0.70296 9.58499,5.31343 -0.0189,2.98146 -0.84892,4.28721 -3.66895,5.77156 -2.49245,1.31192 -2.11721,1.30356 -5.08028,0.11316 z m 165.76454,-0.65744 c -4.17378,-1.49167 -5.25302,-7.053 -2,-10.30602 2.79084,-2.79084 6.43671,-2.53157 8.92742,0.63486 2.68527,3.41376 2.61274,4.91589 -0.38197,7.91059 -2.44435,2.44436 -3.69267,2.78013 -6.54545,1.76057 z m -151.54545,-2.76057 c -1.35,-1.35 -2.45455,-3.08931 -2.45455,-3.86514 0,-2.56152 4.05237,-6.68031 6.57258,-6.68031 3.14552,0 6.42742,3.31896 6.42742,6.5 0,3.0228 -3.23404,6.5 -6.04545,6.5 -1.125,0 -3.15,-1.10455 -4.5,-2.45455 z m 133.54545,-0.54545 c -1.1,-1.1 -2,-3.125 -2,-4.5 0,-3.0228 3.23404,-6.5 6.04545,-6.5 2.33119,0 6.95455,4.20131 6.95455,6.31969 0,0.77582 -0.93266,2.59628 -2.07258,4.04545 -2.49071,3.16643 -6.13658,3.4257 -8.92742,0.63486 z m -98.77749,-8.5567 c -2.38162,-1.66815 -2.90143,-5.30622 -1.20979,-8.46707 0.88549,-1.65456 0.51319,-2.0268 -2.96339,-2.96295 -6.91889,-1.86306 -9.16132,-7.9922 -4.59478,-12.55873 1.54041,-1.54042 3.5983,-2.45455 5.52568,-2.45455 l 3.07113,0 -1.52568,-2.95034 c -1.98721,-3.842846 -1.92426,-5.378966 0.30306,-7.394666 2.94679,-2.66681 9.22997,-2.12304 13.77122,1.19182 6.27365,4.579406 14.44308,12.274536 13.92354,13.115166 -0.26331,0.42604 -3.21936,1.08469 -6.56901,1.46366 -10.24304,1.15887 -11.45626,2.22499 -3.51731,3.09085 13.02638,1.42071 12.86436,1.07045 4.22655,9.13722 -10.59406,9.89368 -15.71882,12.09729 -20.44122,8.78959 z m 62.9601,-0.12361 c -1.82456,-0.89912 -6.7168,-4.80945 -10.87164,-8.68961 -8.60978,-8.04059 -8.77187,-7.69317 4.25185,-9.11359 7.93895,-0.86586 6.72573,-1.93198 -3.51731,-3.09085 -3.34965,-0.37897 -6.28568,-1.00523 -6.52453,-1.39168 -0.54298,-0.87857 6.4137,-7.62325 12.80562,-12.415376 3.78688,-2.83909 5.74607,-3.61858 9.09501,-3.61858 6.46977,0 9.4385,4.15845 6.11019,8.558866 -2.14621,2.83755 -1.88071,3.44113 1.51365,3.44113 4.51158,0 8.36625,4.1915 7.56035,8.22098 -0.84654,4.23273 -2.18739,5.58927 -6.73501,6.81381 -3.4013,0.91588 -3.76759,1.28953 -2.88351,2.94144 1.69164,3.16085 1.17183,6.79892 -1.20979,8.46707 -2.81676,1.97294 -5.40816,1.93955 -9.59488,-0.12361 z m -107.61118,-2.89112 c -2.12179,-2.12179 -1.98626,-6.74318 0.25731,-8.77358 4.05864,-3.67302 10.17126,-1.0618 10.17126,4.34501 0,3.64426 -2.35574,6 -6,6 -1.57143,0 -3.56429,-0.70714 -4.42857,-1.57143 z m 154.42857,0.27674 c -3.17712,-1.58973 -3.95716,-6.99018 -1.41535,-9.79885 3.61083,-3.98992 10.41535,-1.22564 10.41535,4.23115 0,4.967 -4.56122,7.78872 -9,5.5677 z M 233.57234,34.713506 c -0.30578,-1.78033 -0.86942,-5.92694 -1.25252,-9.21471 -0.82636,-7.09172 -1.8297,-5.44708 -2.9268,4.79752 -0.39347,3.67413 -1.0645,6.680226 -1.49118,6.680226 -1.10371,0 -11.918,-11.832896 -14.13134,-15.462376 -2.09221,-3.43085 -2.47169,-10.52581 -0.65988,-12.33762 1.45215,-1.45215 7.437,-1.59637 8.3,-0.2 1.05831,1.71238 2.5,1.09779 2.5,-1.06574 0,-2.3527 1.76699,-6.07876 3.3997,-7.16894999 1.90628,-1.27285 7.39493,-0.82782 8.9483,0.72554999 0.81998,0.81997 2.0222,3.10082 2.67161,5.06855 0.91468,2.77152 1.5525,3.41211 2.83056,2.84285 6.68278,-2.97651 11.47349,1.23639 9.37411,8.24349 -1.1739,3.91815 -9.51842,14.54048 -14.36543,18.286796 l -2.64116,2.04138 -0.55597,-3.236966 z"
     id="path4636" />
</svg>
