<?xml version="1.0" encoding="UTF-8" standalone="no"?>
<svg
   xmlns:dc="http://purl.org/dc/elements/1.1/"
   xmlns:cc="http://creativecommons.org/ns#"
   xmlns:rdf="http://www.w3.org/1999/02/22-rdf-syntax-ns#"
   xmlns:svg="http://www.w3.org/2000/svg"
   xmlns="http://www.w3.org/2000/svg"
   xmlns:xlink="http://www.w3.org/1999/xlink"
   xmlns:sodipodi="http://sodipodi.sourceforge.net/DTD/sodipodi-0.dtd"
   xmlns:inkscape="http://www.inkscape.org/namespaces/inkscape"
   version="1.1"
   id="svg3366"
   viewBox="0 0 581.56112 773.34099"
   height="218.25401mm"
   width="164.12947mm"
   inkscape:version="0.91 r13725"
   sodipodi:docname="escudo_color.svg">
  <metadata
     id="metadata12">
    <rdf:RDF>
      <cc:Work
         rdf:about="">
        <dc:format>image/svg+xml</dc:format>
        <dc:type
           rdf:resource="http://purl.org/dc/dcmitype/StillImage" />
        <dc:title></dc:title>
      </cc:Work>
    </rdf:RDF>
  </metadata>
  <sodipodi:namedview
     pagecolor="#ffffff"
     bordercolor="#666666"
     borderopacity="1"
     objecttolerance="10"
     gridtolerance="10"
     guidetolerance="10"
     inkscape:pageopacity="0"
     inkscape:pageshadow="2"
     inkscape:window-width="818"
     inkscape:window-height="480"
     id="namedview10"
     showgrid="false"
     fit-margin-top="0"
     fit-margin-left="0"
     fit-margin-right="0"
     fit-margin-bottom="0"
     inkscape:zoom="0.22425739"
     inkscape:cx="295.60059"
     inkscape:cy="368.42111"
     inkscape:window-x="826"
     inkscape:window-y="257"
     inkscape:window-maximized="0"
     inkscape:current-layer="svg3366" />
  <defs
     id="defs3368">
    <color-profile
       id="color-profile3417"
       xlink:href="/usr/share/color/icc/colord/AdobeRGB1998.icc"
       name="Compatible-with-Adobe-RGB--1998-" />
  </defs>
  <g
     id="layer1"
     transform="translate(-76.446654,-121.26122)">
    <g
       transform="translate(-69.86072,69.090763)"
       id="g3346" />
    <g
       transform="translate(-79.999957,57.142853)"
       id="g3386">
      <path
         style="fill:#efbb47"
         d="m 394.32858,836.65302 c -4.71163,-0.84424 -6.89481,-1.22935 -29.025,-5.11969 -13.45573,-2.36547 -16.18707,-2.97536 -16.12669,-3.60117 0.0239,-0.2475 1.43466,-0.98213 3.13505,-1.63251 7.23998,-2.76926 12.64423,-7.21431 15.52417,-12.76884 2.2111,-4.26456 2.84216,-7.19721 2.80785,-13.04865 -0.0655,-11.16153 -4.83314,-24.61397 -11.52492,-32.51849 -10.98803,-12.97935 -23.4053,-17.24706 -35.89046,-12.33522 -6.10186,2.40053 -11.12785,6.11744 -17.08378,12.63402 l -3.74238,4.09469 -3.92798,0 c -11.21321,0 -21.63232,3.78202 -29.47086,10.69758 -7.02149,6.1947 -13.43997,17.49978 -15.98477,28.15443 -0.47249,1.97824 -1.06713,3.80488 -1.32143,4.05918 -0.31648,0.31648 -4.54538,-2.29284 -13.40308,-8.27001 -12.19586,-8.22974 -15.00563,-10.14453 -25.18217,-17.16084 -2.2778,-1.57041 -4.26062,-3.14703 -4.40627,-3.50357 -0.70244,-1.71936 9.11789,-19.50588 14.39771,-26.077 5.28682,-6.57981 12.83976,-12.97053 17.1875,-14.5427 0.82678,-0.29893 1.48101,-0.84753 1.47288,-1.23498 -0.008,-0.3834 -3.33179,-4.10769 -7.38608,-8.27622 l -7.37143,-7.57912 -3.75144,3.76807 c -3.93934,3.95681 -7.11482,5.93829 -13.15298,8.20746 -5.2178,1.96092 -14.74704,4.37328 -17.59845,4.45518 l -2.7,0.0775 -2.025,-4.08443 c -1.11375,-2.24644 -4.13742,-8.42269 -6.71928,-13.725 -2.58185,-5.3023 -6.88817,-14.08225 -9.56961,-19.51096 -2.96049,-5.99369 -4.71305,-10.03266 -4.46215,-10.28358 0.25089,-0.25088 1.65832,-0.12996 3.58344,0.30789 5.55293,1.26301 12.2917,0.64926 17.94544,-1.6344 2.477,-1.00049 9.5709,-4.97975 13.32473,-7.47441 3.75449,-2.49503 7.71322,-8.53556 9.48543,-14.47353 1.11285,-3.72866 2.05817,-10.15457 2.06019,-14.00436 l 0.002,-3.43283 2.97435,-0.74709 c 6.55135,-1.64565 10.68132,-5.04842 13.69964,-11.28731 2.87862,-5.95017 3.76598,-10.43397 3.78487,-19.125 0.013,-6.01317 -0.14689,-7.98115 -0.84128,-10.35 -2.56011,-8.73346 -7.35017,-14.85009 -14.45259,-18.45508 -4.7793,-2.42586 -4.4494,-3.37874 -4.75541,13.73566 -0.20229,11.31345 -0.4268,15.37961 -0.94386,17.09442 -2.20799,7.32258 -7.14191,12.44912 -14.02562,14.57312 -9.59835,2.96167 -20.83296,-1.92965 -25.44009,-11.07603 -2.05567,-4.08105 -2.2503,-6.32291 -2.52429,-29.07729 -0.14259,-11.84162 -0.13588,-21.91892 0.0149,-22.39403 0.38271,-1.20582 0.79991,-0.8077 2.28146,2.17715 2.61989,5.27814 8.82294,10.23057 15.22595,12.15616 3.04003,0.91422 8.85343,0.90621 11.9707,-0.0166 5.33059,-1.57792 10.29546,-6.67755 11.84559,-12.16705 1.19983,-4.24904 1.34119,-6.81179 0.47629,-8.63442 -1.024,-2.15793 -5.50416,-5.85887 -9.19061,-7.59218 -2.5462,-1.19718 -3.50778,-1.39284 -7.425,-1.51092 -3.85829,-0.11628 -4.85295,0.0108 -6.975,0.89172 l -2.475,1.02731 -0.225,10.79649 c -0.21677,10.40152 -0.25825,10.80126 -1.13365,10.92667 -0.49975,0.0716 -1.816,-0.47173 -2.925,-1.20739 -6.40789,-4.25084 -10.1111,-15.41835 -7.72157,-23.28534 1.63714,-5.38992 5.40216,-9.6818 10.99826,-12.53736 4.45531,-2.2734 6.28162,-2.58449 16.30696,-2.77772 5.1975,-0.10012 9.90562,-0.2794 10.4625,-0.39829 0.95843,-0.20466 1.0125,-0.43119 1.0125,-4.24184 0,-3.3934 -0.12531,-4.09266 -0.79795,-4.45261 -0.43888,-0.2349 -4.64075,-0.41036 -9.3375,-0.38997 -9.65067,0.0418 -12.184,-0.39578 -17.59338,-3.03984 -4.1671,-2.03684 -8.6082,-6.61131 -10.1157,-10.41948 -0.86264,-2.17922 -1.03752,-3.44075 -1.0196,-7.35534 0.0194,-4.24175 0.17208,-5.10921 1.49262,-8.48165 0.83134,-2.1231 2.28099,-4.74448 3.33374,-6.02829 1.84405,-2.24883 6.33328,-5.24362 6.94544,-4.63338 0.17453,0.17402 0.41858,5.1093 0.54233,10.96736 l 0.225,10.65096 2.08334,1.03414 c 2.65849,1.31963 7.50428,1.76387 10.79119,0.98924 6.64027,-1.56479 13.90049,-7.50173 13.90049,-11.36682 0,-2.59731 -1.5393,-7.68299 -3.13046,-10.34262 -2.02838,-3.39044 -6.15808,-6.73871 -9.55595,-7.74779 -3.05012,-0.90576 -9.41553,-0.89212 -12.54441,0.027 -6.38578,1.87565 -11.94671,6.42848 -15.06277,12.33207 l -1.78141,3.375 -0.225,-10.35 c -0.12375,-5.6925 -0.2127,-16.12125 -0.19766,-23.175 0.0254,-11.9196 0.0964,-13.0338 1.00585,-15.78244 5.32229,-16.0859 24.71486,-20.93049 35.79242,-8.94158 3.15152,3.41081 4.95394,7.35524 5.69142,12.45527 0.24208,1.67404 0.44416,7.53741 0.44906,13.0297 0.005,6.06591 0.18305,10.09355 0.45252,10.26009 0.6955,0.42984 6.27131,-1.10799 9.02642,-2.48953 4.71968,-2.36664 8.76199,-7.67565 9.7509,-12.80651 0.2693,-1.3972 0.32369,-12.99532 0.14351,-30.6 l -0.29016,-28.35 -1.25153,-3.825 c -1.35544,-4.1426 -3.15737,-7.66333 -5.48048,-10.70812 -3.51991,-4.61338 -10.40149,-9.49134 -15.94227,-11.30058 -4.32058,-1.4108 -4.20466,-1.2643 -4.00187,-5.05764 1.16318,-21.75847 -2.03481,-34.38635 -11.1482,-44.02085 -5.1773,-5.47333 -11.26746,-8.32292 -19.79992,-9.26439 -5.1201,-0.56494 -11.76935,1.90613 -16.48313,6.12567 -1.43447,1.28406 -2.70847,2.23431 -2.83113,2.11166 -0.22019,-0.2202 1.49031,-4.14129 10.64872,-24.41075 4.34619,-9.61902 4.86765,-10.54351 7.3835,-13.08994 3.34361,-3.38424 5.95099,-4.39997 11.04615,-4.30315 5.20637,0.0989 9.78751,1.46206 16.80885,5.00145 l 6.24796,3.14954 3.53954,-3.44449 c 1.94674,-1.89447 3.53953,-3.59061 3.53953,-3.7692 0,-0.17858 -1.68501,-2.4216 -3.74447,-4.98446 -10.36877,-12.90327 -13.69002,-24.09596 -9.01839,-30.39223 0.58457,-0.78785 4.55598,-3.78824 8.82536,-6.66751 4.26938,-2.87928 10.57305,-7.14106 14.00816,-9.47064 3.43512,-2.32958 6.42199,-4.12662 6.6375,-3.99343 0.21552,0.13319 0.39184,1.22035 0.39184,2.4159 0,4.86233 2.02434,13.06459 4.39263,17.79816 5.94166,11.87578 16.16846,19.26052 32.05738,23.14853 9.68792,2.37063 11.32499,2.43403 55.24945,2.13962 37.49365,-0.2513 40.66463,-0.33226 44.42555,-1.13421 10.85606,-2.31488 19.23231,-7.94323 23.37967,-15.70979 1.16777,-2.18681 1.60314,-2.61102 2.94533,-2.86971 3.46696,-0.66822 41.49807,-1.96821 55.575,-1.89968 14.98342,0.0729 48.51756,1.25711 49.30034,1.7409 0.2326,0.14375 0.96637,1.41404 1.63062,2.82286 3.15076,6.6827 11.16153,12.26448 21.51904,14.99413 l 4.05,1.06735 42.525,-0.0242 c 45.1103,-0.0256 45.21695,-0.03 54.49928,-2.23577 16.30075,-3.87358 27.03717,-11.78375 32.75892,-24.1355 2.15725,-4.65694 3.17632,-8.5415 3.46414,-13.20458 0.30438,-4.93112 0.58464,-6.525 1.14732,-6.525 0.54617,0 27.04046,17.62005 28.67896,19.07297 3.07296,2.72489 3.73572,8.57824 1.68939,14.92001 -1.36112,4.21814 -5.08554,10.57612 -9.20309,15.71048 -3.79665,4.7342 -4.20606,5.38748 -3.8911,6.20832 0.14535,0.37873 1.79635,2.06528 3.66894,3.74789 l 3.4047,3.05929 2.07877,-1.2374 c 7.39157,-4.39995 15.24092,-7.03163 20.97252,-7.03163 8.14271,0 11.84315,3.08159 16.63371,13.85203 1.13193,2.54487 2.2523,4.97487 2.48967,5.4 0.80312,1.43822 9.33188,20.1153 9.65142,21.13547 0.17442,0.55687 0.18122,1.0125 0.0153,1.0125 -0.16605,0 -1.53058,-1.02664 -3.03223,-2.28141 -6.96132,-5.81673 -14.12163,-7.10869 -23.31036,-4.20597 -6.64146,2.09803 -12.0461,6.12867 -15.87978,11.84268 -6.00021,8.94315 -8.17736,18.72725 -7.86947,35.36524 l 0.15813,8.54555 -2.72115,0.93593 c -9.8221,3.37826 -17.96463,10.82974 -21.30818,19.49978 -2.70256,7.00802 -2.79166,8.32039 -2.64955,39.02771 l 0.12888,27.84549 1.43194,2.925 c 2.51951,5.14652 6.35814,8.38323 12.04507,10.15632 2.06239,0.64305 4.22752,1.10156 4.8114,1.01889 l 1.06159,-0.15021 0.25938,-12.375 c 0.23702,-11.30782 0.34727,-12.62722 1.27859,-15.3 4.42827,-12.70862 17.14626,-18.10591 29.18848,-12.38709 5.74119,2.72648 10.40081,8.54056 11.74203,14.65127 0.60426,2.7531 1.1723,45.34362 0.62361,46.75959 -0.39852,1.02843 -0.52267,0.89883 -1.93999,-2.025 -2.741,-5.65461 -9.24836,-10.97379 -15.44288,-12.62322 -4.84272,-1.28943 -11.11788,-0.65412 -15.47028,1.56631 -2.60131,1.3271 -6.56293,5.89797 -7.71016,8.89587 -1.51547,3.96018 -2.04638,8.28023 -1.25141,10.18287 0.70511,1.68755 5.12636,5.64008 7.88063,7.04525 4.97583,2.53845 12.01558,2.98674 16.37127,1.04247 l 2.12931,-0.95045 0.12069,-10.71643 c 0.11767,-10.44671 0.14418,-10.71977 1.05156,-10.84955 1.27647,-0.18252 5.03644,2.43387 6.7563,4.70142 0.7794,1.02758 2.08656,3.45758 2.90479,5.4 1.3811,3.27866 1.49022,3.90276 1.52289,8.71119 0.0342,5.02079 -0.0122,5.27594 -1.50817,8.325 -2.72885,5.5616 -8.05293,9.81887 -14.65664,11.71985 -2.00997,0.57861 -5.23012,0.84735 -12.6,1.05147 l -9.9,0.27418 -0.13153,4.04213 c -0.11111,3.41316 -0.0104,4.13086 0.64849,4.6125 0.57137,0.41778 3.31601,0.57037 10.25798,0.57037 7.99789,0 9.94981,0.13496 12.49974,0.86418 8.59054,2.45664 14.70321,8.69702 16.14177,16.47905 1.11469,6.02977 -1.44023,14.30221 -5.80806,18.80563 -2.20739,2.27592 -5.20727,4.12493 -5.94882,3.6666 -0.25898,-0.16006 -0.43457,-4.43956 -0.43457,-10.59201 0,-11.83518 0.0999,-11.52436 -4.10688,-12.77365 -6.36664,-1.89068 -13.06939,-0.13199 -19.19214,5.03577 -3.34728,2.82514 -3.87481,4.03348 -3.56274,8.16012 0.44496,5.88339 4.07417,11.76592 9.06188,14.68831 2.34252,1.3725 6.55398,2.466 9.49743,2.466 3.44902,0 8.92732,-1.56951 12.05523,-3.45375 3.71254,-2.23641 7.44246,-6.16711 9.27144,-9.7704 0.82435,-1.62414 1.67364,-2.8449 1.8873,-2.71282 0.55773,0.3447 0.49194,43.61854 -0.0708,46.58611 -1.7334,9.14013 -9.45302,16.31457 -18.84353,17.51265 -9.81823,1.25267 -19.47415,-5.2006 -22.57416,-15.08679 -0.37836,-1.20658 -0.65236,-6.72061 -0.83119,-16.72564 -0.14675,-8.20908 -0.40923,-15.06776 -0.58334,-15.2415 -0.70902,-0.70763 -3.69882,0.41544 -6.98612,2.62413 -5.7928,3.89223 -9.95827,10.00512 -11.75049,17.24413 -1.31886,5.32724 -1.4917,7.71156 -0.9643,13.30425 1.16563,12.36024 5.33713,21.0587 11.96239,24.944 1.01471,0.59508 3.33509,1.46038 5.15638,1.92294 1.82128,0.46251 3.36222,1.01795 3.42432,1.23431 0.062,0.21636 0.31383,2.92464 0.55939,6.01839 0.81369,10.24915 3.70787,18.02718 8.51013,22.87053 3.33086,3.35938 12.56328,8.73171 18.75483,10.9134 3.75561,1.32336 12.41897,1.70131 16.19276,0.70641 1.48099,-0.39042 2.86177,-0.54081 3.06837,-0.33422 0.20659,0.2066 -2.19762,5.71788 -5.34276,12.24725 -3.1451,6.52941 -8.11575,16.91325 -11.04593,23.07519 -2.93017,6.16198 -5.66716,11.57886 -6.08224,12.0375 -0.41508,0.45868 -1.1939,0.83394 -1.73075,0.83394 -1.59462,0 -15.13237,-3.45641 -18.49725,-4.72266 -6.65091,-2.50281 -12.81789,-6.55943 -15.12662,-9.95027 -0.56956,-0.8365 -1.37232,-1.5223 -1.78384,-1.52401 -0.79232,-0.005 -15.00174,14.59129 -15.00174,15.40831 0,0.2633 1.37295,1.2159 3.05104,2.11694 8.38571,4.50252 15.18782,11.47104 22.04195,22.58113 3.41078,5.52866 8.53038,15.97244 8.33279,16.99848 -0.13455,0.69858 -5.29133,4.40019 -23.25412,16.69208 -5.24443,3.58875 -11.50101,7.8943 -13.90347,9.5679 -2.48341,1.72993 -4.75006,2.992 -5.25316,2.925 -0.59553,-0.0793 -1.01237,-0.63306 -1.27445,-1.6929 -2.12373,-8.5892 -6.05578,-17.50667 -10.25716,-23.26239 -7.81772,-10.70991 -19.41296,-16.74446 -33.56816,-17.47004 -2.92342,-0.14985 -5.73516,-0.35626 -6.24834,-0.45868 -0.51322,-0.10238 -1.93072,-1.43303 -3.15,-2.95695 -3.00474,-3.75534 -9.8572,-9.39542 -14.09175,-11.59848 -5.40076,-2.8098 -9.6597,-3.80831 -15.11208,-3.54299 -7.56738,0.36819 -13.35316,3.20063 -20.42415,9.99864 -6.54736,6.29465 -9.49081,10.97357 -12.44241,19.77854 -4.78476,14.27355 -4.18077,25.59172 1.78236,33.40138 2.8598,3.7454 7.76012,7.29419 12.59402,9.12056 4.79929,1.81327 4.90468,1.86781 4.46323,2.30926 -0.37327,0.37328 -9.74965,2.22341 -24.01114,4.73778 -7.68645,1.35518 -18.7628,3.36344 -22.17164,4.01994 -4.82122,0.92853 -5.70913,0.86108 -8.00276,-0.60781 -6.11772,-3.91788 -11.49542,-12.57219 -13.54179,-21.79274 -0.8012,-3.61008 -0.8891,-5.14795 -0.67447,-11.80102 0.13574,-4.2075 0.55839,-9.16065 0.93922,-11.007 0.38977,-1.88973 0.52222,-3.52724 0.30302,-3.74643 -0.2192,-0.2192 -1.74156,0.28809 -3.48299,1.16059 -16.16899,8.10122 -39.98503,8.32523 -57.07544,0.53685 -4.51296,-2.05659 -4.93395,-2.04556 -4.5224,0.11849 1.83195,9.63288 2.07751,18.56533 0.69463,25.26745 -1.74889,8.47602 -7.56427,17.82621 -13.42679,21.58821 -2.49256,1.59944 -2.29625,1.58918 -8.6386,0.4527 z m 55.28991,-84.65836 c 1.76856,-3.03687 2.72701,-4.06328 6.67625,-7.14933 5.46827,-4.27311 15.76281,-9.08991 27.60788,-12.91761 18.0809,-5.8428 48.72703,-12.0042 77.37596,-15.55637 5.07375,-0.6291 11.95875,-1.36539 15.3,-1.63615 29.98058,-2.42969 47.76507,-17.6315 53.40924,-45.65304 0.76658,-3.80588 0.81113,-7.80714 0.73926,-66.37501 -0.2034,-165.67627 -0.84865,-277.73865 -1.60758,-279.18624 -0.44248,-0.84402 -1.64056,-0.85523 -59.90872,-0.56088 -32.70146,0.1652 -101.3747,0.40113 -152.6072,0.52428 -126.84667,0.3049 -151.49097,0.50145 -151.92994,1.21172 -0.3538,0.57247 -0.10983,303.29815 0.26304,326.38612 0.16071,9.95063 0.39503,13.68815 1.11442,17.77501 3.22938,18.34623 12.21901,31.69098 26.57748,39.45312 7.48273,4.04514 16.82116,6.46096 28.34967,7.33405 7.7655,0.58811 22.75662,2.36295 30.60033,3.62291 3.09375,0.49698 7.0425,1.09413 8.775,1.327 1.7325,0.23292 6.39,1.05125 10.35,1.81854 3.96,0.7673 9.225,1.77773 11.7,2.24541 17.87701,3.37829 35.91798,8.86676 47.25,14.37458 9.42315,4.58001 15.13855,9.22095 17.35995,14.09638 0.30773,0.67541 0.71018,1.22801 0.89433,1.22801 0.18414,0 0.95393,-1.06313 1.71063,-2.3625 z m 84.15416,-61.875 c -0.61835,-0.68063 -1.36062,-1.79438 -1.64952,-2.475 -0.62415,-1.47056 -1.07775,-1.52991 -2.70027,-0.3533 -1.33295,0.9666 -4.80182,1.8806 -5.75262,1.51574 -2.30261,-0.88358 -3.06999,-11.45349 -1.14462,-15.76575 1.16604,-2.61162 4.75204,-6.28011 7.51099,-7.6838 5.0306,-2.55946 11.26278,-3.73446 21.75296,-4.10134 l 7.83598,-0.27405 1.52388,-2.77961 c 5.26775,-9.60854 4.17528,-19.25555 -3.18402,-28.1165 -3.93552,-4.73859 -4.56979,-5.08342 -13.51701,-7.34881 -12.65872,-3.20513 -20.2986,-6.62657 -25.5847,-11.45772 -2.82591,-2.58278 -4.32783,-5.57744 -5.54054,-11.04737 -0.43897,-1.98 -1.05579,-3.88498 -1.3707,-4.23328 -0.49086,-0.54288 -1.42762,-0.49082 -6.56073,0.36486 -10.70553,1.78452 -15.81236,4.13275 -17.95465,8.25592 -0.79233,1.52492 -1.7585,2.2518 -1.7585,1.32291 0,-0.76464 -3.00253,-3.40861 -4.725,-4.16074 -4.16322,-1.81782 -10.23711,-1.47164 -16.99501,0.96867 -4.29284,1.55016 -5.72999,2.70886 -5.72999,4.61974 0,1.9247 1.42144,3.76173 5.10416,6.5966 4.62642,3.5613 8.33484,7.14802 9.52797,9.21532 1.54653,2.67962 2.91787,7.63043 2.91787,10.53405 0,3.43008 -1.65791,6.79037 -4.22,8.55311 -2.04292,1.40557 -5.96431,2.73784 -8.05852,2.73784 -1.66001,0 -12.8049,4.96755 -19.89648,8.86833 -12.67982,6.97465 -22.3423,14.82355 -26.89148,21.84413 -0.76898,1.1867 -1.59442,2.09223 -1.83433,2.01227 -0.2399,-0.08 -0.68206,-1.11371 -0.98256,-2.29721 -0.683,-2.68992 -1.86282,-4.32675 -3.84862,-5.33929 -2.53126,-1.29074 -4.75115,-1.01048 -9.22567,1.16473 -6.00722,2.92032 -9.76118,4.04006 -13.69234,4.08416 -4.72357,0.053 -6.83402,-1.14966 -8.99744,-5.12739 -1.85364,-3.40812 -4.829,-5.88861 -8.55256,-7.13007 -3.01669,-1.00575 -3.2542,-1.78866 -1.39444,-4.59639 1.67198,-2.52423 3.50708,-3.89728 7.21766,-5.40032 1.59439,-0.64584 2.96807,-1.38182 3.05263,-1.63548 0.0845,-0.25367 -0.22646,-0.93074 -0.69113,-1.50458 -0.6858,-0.84694 -1.30283,-1.05039 -3.2773,-1.08063 l -2.43242,-0.0373 0.15445,-2.01595 c 0.0849,-1.1088 0.43509,-2.5587 0.77811,-3.222 0.90176,-1.74384 3.43277,-3.67992 6.03301,-4.61498 1.24268,-0.44685 2.25943,-0.9873 2.25943,-1.20105 0,-0.50472 -3.18692,-2.67102 -3.92946,-2.67102 -1.96014,0 1.70517,-3.97012 4.99938,-5.41512 3.03078,-1.32948 4.8247,-1.47721 7.73916,-0.63742 2.43932,0.7029 3.03844,1.15951 7.0486,5.37223 6.59128,6.92429 12.87137,10.69866 19.98066,12.00861 5.23214,0.96404 11.34098,-0.5841 17.3167,-4.38858 3.63123,-2.31178 8.92323,-7.22695 10.06622,-9.34933 1.85626,-3.44687 -0.84139,-9.08195 -8.06145,-16.83932 -6.83625,-7.34503 -9.25981,-12.72141 -9.25981,-20.54178 0,-7.80538 2.43745,-13.06723 9.20809,-19.87789 5.06802,-5.09801 8.47727,-7.09722 14.90731,-8.74175 9.50201,-2.43018 25.53625,-3.21619 45.08066,-2.20986 6.36844,0.32792 12.48601,0.60723 13.59458,0.62069 l 2.01569,0.0243 0.35046,-2.41344 c 0.46759,-3.21993 -0.16799,-5.34312 -2.33708,-7.80737 -4.35739,-4.95004 -16.85481,-8.90397 -28.14414,-8.90397 -9.97535,0 -28.14744,-2.51379 -39.15057,-5.41575 -12.8354,-3.38521 -22.16939,-7.58038 -29.81466,-13.40023 -5.68624,-4.3286 -10.316,-10.21577 -12.89445,-16.39652 -0.69693,-1.67062 -1.44994,-3.0375 -1.67334,-3.0375 -0.2234,0 -1.56749,0.65435 -2.98687,1.45413 -4.6889,2.64209 -7.82607,6.58841 -8.47787,10.66455 -0.16281,1.01822 -0.48415,1.96754 -0.71408,2.10965 -0.22993,0.14211 -2.17771,-1.0935 -4.32839,-2.74577 l -3.91034,-3.00415 -1.25059,1.49697 c -1.58694,1.89958 -4.23551,7.21372 -4.84731,9.72571 -0.25801,1.05935 -0.64821,1.81539 -0.8671,1.68008 -0.21891,-0.13527 -1.53673,-2.36889 -2.9285,-4.96355 -1.39176,-2.5947 -2.77734,-4.71762 -3.07905,-4.71762 -1.31545,0 -10.82183,10.6497 -11.96072,13.39925 -1.10808,2.67516 -1.72037,1.78996 -2.06183,-2.9808 -0.17445,-2.43738 -0.48796,-4.70786 -0.69668,-5.04558 -0.75147,-1.2159 -8.517,3.15004 -12.75246,7.16971 l -2.19424,2.08242 0.28979,-2.25 c 0.78025,-6.05803 0.83102,-6.975 0.38617,-6.975 -0.25379,0 -1.7498,0.59549 -3.32446,1.32327 -8.24473,3.8106 -15.33623,2.56554 -19.15221,-3.36253 -0.79155,-1.22963 -1.75343,-2.59011 -2.1375,-3.02324 -0.9645,-1.08769 -4.09298,-1.02006 -7.23748,0.15647 -1.38762,0.51916 -2.6287,0.83817 -2.75797,0.70888 -1.0052,-1.00521 4.39822,-6.47842 8.52452,-8.63464 3.24295,-1.69461 3.35593,-2.62233 0.47457,-3.89687 -1.66432,-0.7362 -2.60578,-0.86841 -4.55401,-0.63945 -1.5901,0.18689 -2.67489,0.10697 -3.07695,-0.22671 -1.25845,-1.0444 -0.48164,-4.82404 1.5428,-7.50654 0.97217,-1.28821 5.12115,-3.65575 8.38282,-4.78359 0.83172,-0.28755 0.82142,-0.35041 -0.225,-1.37304 -1.06339,-1.03918 -7.99309,-4.74201 -8.87454,-4.74201 -0.24028,0 -0.67772,-0.2902 -0.97209,-0.64489 -0.76784,-0.9252 0.56564,-1.6785 6.45972,-3.6491 4.16177,-1.3914 5.5671,-1.65172 9.225,-1.70865 3.85867,-0.0601 4.5993,0.0655 6.9992,1.18697 1.56682,0.73215 3.90802,2.42824 5.625,4.07502 3.43665,3.29616 6.24204,5.2843 9.81783,6.95776 2.44355,1.14359 2.91355,1.20276 9.32327,1.1741 7.37894,-0.0328 11.39459,-0.73521 19.575,-3.42311 5.89274,-1.93621 13.5,-5.53783 13.5,-6.39144 0,-0.9508 -7.80043,-7.2594 -10.8,-8.7345 -2.61985,-1.28839 -6.65358,-1.6218 -9.7875,-0.80896 l -1.4625,0.3793 0,-5.6547 c 0,-3.11008 -0.17108,-5.7604 -0.38017,-5.88964 -0.20909,-0.12924 -2.60641,0.50053 -5.32736,1.39945 -2.72095,0.89892 -5.28363,1.50534 -5.69483,1.34753 -0.61422,-0.23571 -0.7541,-0.99207 -0.78386,-4.23851 -0.0199,-2.17341 -0.27304,-4.86288 -0.5625,-5.97663 -0.59781,-2.30022 -0.82202,-2.35525 -5.34899,-1.31283 -1.41499,0.32585 -2.71249,0.45261 -2.88335,0.28179 -0.17085,-0.17086 0.21537,-2.0844 0.85829,-4.25232 2.44411,-8.24164 2.58963,-12.27266 0.59809,-16.56702 -1.10569,-2.38422 -1.71614,-2.80455 -5.80425,-3.99666 -2.83375,-0.82632 -5.35067,-2.73778 -6.49458,-4.93226 -0.48705,-0.93436 -0.82634,-3.20857 -1.02645,-6.88019 -0.26908,-4.93716 -0.44283,-5.77683 -1.74102,-8.41381 -2.05546,-4.17524 -4.63735,-6.33093 -10.52152,-8.78472 -1.17563,-0.49026 -2.1375,-1.14442 -2.1375,-1.45371 0,-0.30928 1.08226,-1.61059 2.40503,-2.89179 3.35319,-3.24782 6.6681,-4.40124 13.45747,-4.6825 0.59857,-0.0248 0.35855,-3.61796 -0.33071,-4.95085 -0.98574,-1.9062 -2.98355,-3.12444 -6.52411,-3.9783 -1.73287,-0.41791 -3.08603,-0.95848 -3.00703,-1.20127 0.079,-0.2428 1.6468,-0.92149 3.48399,-1.50821 4.12466,-1.31724 9.32284,-1.42667 13.40194,-0.28213 1.81563,0.50944 2.96591,0.63428 3.24772,0.35248 0.70317,-0.70317 -0.72655,-3.5089 -2.84523,-5.5836 l -1.91407,-1.87433 2.50577,0.24017 c 5.75269,0.55136 13.48603,4.1248 17.71022,8.18356 4.01158,3.8545 4.52777,5.40761 4.56608,13.7385 0.0507,11.03209 0.65892,14.05655 4.96029,24.66681 2.59407,6.39886 3.57311,8.27382 7.09265,13.58319 4.93424,7.4435 13.38071,16.26211 21.09997,22.02962 3.78309,2.82654 4.5552,3.23221 5.625,2.95533 0.68201,-0.17649 2.22301,-0.42377 3.42445,-0.54954 2.0828,-0.21798 2.17324,-0.284 1.94401,-1.41948 -0.13223,-0.65502 -0.36031,-1.50048 -0.50686,-1.87884 -0.14654,-0.37836 -0.009,-1.02389 0.30599,-1.43456 0.49408,-0.64444 0.91119,-0.68184 3.04743,-0.27346 2.81719,0.5386 10.24547,0.21573 12.6,-0.5477 0.86625,-0.28084 1.84958,-0.59593 2.18519,-0.7002 0.39875,-0.12384 -0.30291,-1.16962 -2.025,-3.01807 -3.30618,-3.54877 -4.22196,-5.14555 -3.2894,-5.73547 0.35982,-0.22762 1.36296,-0.41759 2.22921,-0.42218 2.54729,-0.0134 9.34091,-1.32726 11.99161,-2.31902 1.34894,-0.5047 2.99954,-1.39922 3.668,-1.98781 l 1.21539,-1.07018 -1.36443,-0.0142 c -3.73115,-0.0389 -9.87028,-2.88315 -9.56678,-4.4323 0.0814,-0.41546 2.02615,-1.29267 5.12244,-2.31053 15.68505,-5.15623 25.60473,-13.41711 29.41707,-24.49784 1.05556,-3.06804 1.64978,-7.47355 1.00805,-7.47355 -0.25429,0 -1.38781,1.29691 -2.51892,2.88203 -3.19383,4.47575 -7.47891,8.08552 -12.64743,10.65425 -5.3988,2.68318 -9.17372,3.54543 -15.56776,3.55591 -3.98748,0.007 -4.87926,-0.12107 -5.44914,-0.77969 -0.99313,-1.1478 -7.5581,-12.7224 -7.55812,-13.32563 -2e-5,-0.35855 1.92072,-0.51187 6.4125,-0.51187 5.51788,0 6.82907,-0.14397 9.39826,-1.03197 6.40398,-2.21341 9.21918,-7.60861 7.51065,-14.3938 -0.673,-2.6727 -3.92929,-6.03212 -7.28581,-7.51653 -5.30367,-2.34553 -12.65394,-2.66066 -21.20524,-0.90913 -4.24509,0.8695 -5.5054,0.98738 -5.91431,0.5532 -0.58031,-0.61618 -6.01603,-14.23777 -6.01603,-15.07582 0,-0.73625 0.6584,-0.83969 12.15,-1.90874 5.56875,-0.51805 10.47959,-1.04569 10.91298,-1.17254 0.43339,-0.12684 1.01777,-0.65999 1.29862,-1.18477 1.66075,-3.10314 7.84633,-8.32269 12.84395,-10.83806 5.01549,-2.52436 9.009,-3.49521 15.5133,-3.77138 11.47865,-0.48739 22.26802,2.29973 29.85615,7.71246 3.81478,2.72115 8.28035,7.50402 10.80621,11.57407 2.74388,4.42137 4.55571,8.80042 6.5636,15.86376 1.80391,6.34577 3.23745,10.13263 5.25205,13.87396 0.89577,1.66359 1.52042,3.13299 1.38807,3.26534 -0.1323,0.13234 -2.60451,-0.8744 -5.49374,-2.23722 -2.88923,-1.3628 -5.58037,-2.47783 -5.98031,-2.47783 -0.63129,0 -0.68616,0.43016 -0.41614,3.2625 0.65665,6.88794 2.64498,11.99073 6.17894,15.85745 1.19698,1.30968 2.17632,2.58016 2.17632,2.82327 0,0.24312 -1.72999,0.80509 -3.84443,1.24882 -2.11443,0.44373 -3.94974,0.97718 -4.07845,1.18544 -0.12872,0.20827 0.16115,0.93416 0.64416,1.61309 1.29585,1.82152 2.26356,5.52415 2.59615,9.93344 0.36193,4.79823 -0.58783,12.34443 -2.76955,22.00497 -1.85137,8.1978 -1.90143,9.67205 -0.42288,12.45282 0.61875,1.1637 1.125,2.20635 1.125,2.31701 0,0.51754 -1.59832,0.0731 -4.8157,-1.33925 -5.49771,-2.41326 -5.62398,-2.41902 -7.27691,-0.33201 -0.78108,0.98618 -1.72103,2.51316 -2.08877,3.39332 -0.80139,1.91799 -0.86903,6.54228 -0.14176,9.69295 0.83828,3.63164 0.82292,3.62993 -5.66569,-0.63189 -2.45511,-1.61257 -4.71753,-2.93193 -5.02761,-2.93193 -1.19418,0 -1.75128,3.28554 -1.75494,10.35 -0.003,5.59062 0.16108,7.46622 0.8262,9.45 2.39603,7.14636 5.97112,12.48426 11.01027,16.43936 4.56403,3.58213 20.349,10.06564 30.13776,12.37878 2.05029,0.48447 6.01033,1.08099 8.80011,1.32556 7.00956,0.61448 11.15437,2.12369 16.72204,6.08877 2.53071,1.8023 8.36118,7.52486 11.18084,10.97388 1.03635,1.2677 1.6258,1.56726 3.42378,1.74002 4.28746,0.41197 9.508,-2.52491 12.12925,-6.82344 2.13084,-3.49434 2.25468,-15.58931 0.24251,-23.6835 -1.98878,-7.99992 -5.22986,-13.72707 -11.4539,-20.23943 -16.86127,-17.64234 -27.12978,-34.45866 -28.85098,-47.24821 -1.45013,-10.77515 3.99519,-22.86224 13.2592,-29.43183 6.59012,-4.67337 12.69401,-6.78324 19.6443,-6.79022 5.28611,-0.005 7.79981,0.55666 12.15023,2.71632 4.30893,2.13908 7.90443,5.02589 12.12714,9.73681 5.27157,5.88108 5.6763,6.21713 7.48719,6.21713 3.85452,0 6.0669,-2.17419 6.99412,-6.87346 0.28202,-1.42915 0.67163,-2.69666 0.8658,-2.81668 0.5873,-0.36297 3.05451,2.98006 3.78797,5.1326 2.02869,5.9539 -0.35033,10.63641 -7.49898,14.75974 -1.93239,1.11461 -3.51347,2.12946 -3.51347,2.25522 0,0.12575 0.41153,0.80661 0.91454,1.51301 2.22421,3.12363 3.2539,6.26188 3.2539,9.91737 0,3.09393 -0.19084,3.92315 -1.566,6.80522 -1.89256,3.96652 -5.36998,8.00698 -6.89121,8.00698 -1.91079,0 -7.04983,-1.37956 -9.16209,-2.45952 -5.08905,-2.60199 -7.88152,-6.64164 -8.74782,-12.65471 l -0.49203,-3.41564 -2.49214,0.37743 c -4.6355,0.70205 -9.5009,0.44308 -11.49215,-0.61168 -3.57066,-1.89137 -5.43276,-4.9147 -5.92447,-9.61903 -0.33548,-3.20965 0.28935,-3.72816 2.25085,-1.86782 2.04354,1.93814 4.0055,2.80097 6.36921,2.80097 5.14697,0 9.56579,-4.84532 8.56679,-9.39369 -0.70493,-3.20947 -3.64253,-5.16508 -8.94281,-5.9534 -2.81542,-0.41874 -3.74382,-0.37978 -5.90233,0.24773 -4.63226,1.34662 -8.20184,5.77933 -9.88511,12.2753 -1.46965,5.67172 -0.61209,11.47849 2.80773,19.01124 3.82176,8.41806 9.57429,16.38765 19.55169,27.08707 9.26442,9.93483 13.28562,15.98567 17.42976,26.22726 1.20699,2.98292 2.75864,7.65099 3.44808,10.37349 1.16636,4.6058 1.25447,5.59179 1.26707,14.17964 l 0.0135,9.22963 -2.0876,4.31973 c -5.33398,11.03733 -13.67869,18.23085 -22.24579,19.17684 l -3.11661,0.34416 -0.0716,5.38344 c -0.0392,2.96091 -0.22374,8.12466 -0.40977,11.475 -0.51381,9.25344 -0.45801,9.98411 0.96223,12.59357 2.7248,5.00634 10.98707,11.22939 20.57081,15.49368 2.15779,0.96012 3.92328,2.00551 3.92328,2.32312 0,0.31766 -1.46813,1.12932 -3.2625,1.80374 -5.063,1.903 -6.1875,2.38644 -6.1875,2.66017 0,0.1395 1.1254,2.93423 2.50087,6.21045 4.45761,10.61748 10.80315,21.88782 17.11166,30.39192 1.52226,2.0521 2.16432,3.37825 2.32479,4.80173 0.45225,4.01247 -2.10542,8.35295 -7.73465,13.12605 -2.67786,2.27061 -10.40314,7.36214 -11.17039,7.36214 -0.21474,0 -1.39797,0.43344 -2.6294,0.96318 -1.66909,0.71802 -2.52076,1.44396 -3.34593,2.85205 -0.60885,1.03887 -1.11006,2.17481 -1.11384,2.52432 -0.005,0.34947 -0.18355,0.91436 -0.39946,1.25519 -0.30339,0.47902 -0.76824,0.20394 -2.04669,-1.21118 -4.68068,-5.18094 -12.75602,-4.10994 -24.31737,3.22511 -2.20307,1.39774 -4.23185,2.54133 -4.50837,2.54133 -0.27657,0 -1.00877,-0.55688 -1.62716,-1.2375 z M 449.82684,373.54465 c -0.2053,-0.80438 -0.37326,-3.43699 -0.37326,-5.85025 0,-2.41326 -0.0652,-4.38764 -0.14487,-4.3875 -0.0797,1.4e-4 -0.99093,0.48352 -2.025,1.07419 -1.72034,0.98265 -5.40093,2.28179 -9.24927,3.2647 l -1.51914,0.388 3.76914,1.52819 c 3.511,1.42353 8.17121,4.1086 8.74652,5.03947 0.6277,1.01564 1.14835,0.32428 0.79588,-1.0568 z m -20.62326,23.00743 c -0.7425,-0.23523 -7.12125,-0.59591 -14.175,-0.80151 -11.39192,-0.33203 -13.12269,-0.48128 -15.48904,-1.33571 -3.8083,-1.37506 -5.96033,-2.76026 -9.04146,-5.81972 -3.69667,-3.67068 -6.86298,-10.38162 -3.91042,-8.28808 1.67206,1.18558 5.84718,3.19129 7.75227,3.72415 1.31847,0.36877 4.63408,0.53228 9.60393,0.47363 4.33616,-0.0512 8.67698,0.13224 10.125,0.42782 4.50163,0.91892 12.0415,5.46798 17.04722,10.28518 1.80936,1.74122 1.04818,2.27225 -1.9125,1.33424 z m -80.6878,421.22061 c -6.59185,-2.42577 -7.7372,-2.95331 -7.7372,-3.5636 0,-0.22905 1.26562,-1.69002 2.8125,-3.24666 5.70075,-5.73678 6.28471,-9.82296 2.02692,-14.18332 -1.02206,-1.0467 -1.71604,-2.04534 -1.54218,-2.21918 0.17387,-0.17388 3.70499,0.6512 7.84694,1.83348 8.48188,2.42105 9.65519,3.16026 11.37992,7.16954 2.05827,4.78458 0.0616,10.35252 -5.07641,14.15614 -1.30498,0.96606 -2.6865,1.86543 -3.07004,1.99854 -0.38354,0.13316 -3.37175,-0.74205 -6.64045,-1.94494 z m 191.8378,0.86395 c -1.66387,-0.9117 -5.68827,-5.08873 -6.59916,-6.8494 -1.48914,-2.87847 -1.58724,-6.04764 -0.27517,-8.88917 1.82227,-3.94641 2.69847,-4.52835 9.90342,-6.57765 3.53151,-1.00449 7.12656,-1.97365 7.98903,-2.15374 l 1.56811,-0.32742 -1.72431,1.90863 c -4.3654,4.83196 -3.88912,8.54149 1.86192,14.50273 1.71356,1.77615 2.81336,3.27564 2.67228,3.64334 -0.27774,0.72373 -11.94417,5.2699 -13.47133,5.24952 -0.56363,-0.008 -1.42979,-0.23562 -1.92479,-0.50684 z M 183.03822,351.94465 c -1.05771,-6.33204 -5.04579,-9.29306 -11.6106,-8.62048 -1.97347,0.20219 -2.97742,0.13202 -3.19712,-0.22345 -0.34131,-0.55225 3.35157,-7.81469 4.67069,-9.18543 0.56619,-0.58834 1.71855,-0.88427 4.11924,-1.05782 4.96519,-0.35895 8.14162,1.17152 11.26913,5.4297 0.70896,0.96525 1.28901,2.21993 1.28901,2.78816 0,1.49945 -4.99583,12.78182 -5.65979,12.78182 -0.31001,0 -0.70406,-0.85585 -0.88056,-1.9125 z m 526.36241,-2.00781 c -0.7195,-1.43258 -2.06689,-4.3772 -2.99416,-6.54361 -1.54337,-3.60588 -1.6371,-4.05677 -1.10853,-5.33283 1.01025,-2.43893 4.48866,-5.58412 7.15536,-6.46985 2.73159,-0.90729 8.30191,-0.72165 9.28228,0.30934 1.03077,1.08401 4.77185,8.44572 4.58172,9.01595 -0.13306,0.39908 -1.05291,0.5221 -3.11508,0.41662 -3.60445,-0.18438 -6.18759,0.47382 -8.06746,2.05564 -1.70055,1.4309 -3.5456,5.16072 -3.55176,7.17999 -0.007,2.36002 -0.7943,2.13237 -2.18237,-0.63125 z M 304.38325,269.83769 c -4.72776,-2.32906 -4.12816,-9.66501 0.94558,-11.56906 3.6071,-1.35366 27.33999,-6.2582 40.17475,-8.30236 34.20009,-5.44696 61.01433,-7.60971 98.1,-7.91245 48.47085,-0.39567 89.18172,3.3757 131.625,12.19345 6.55875,1.3626 12.6207,2.81663 13.47098,3.23117 2.44363,1.19135 3.40402,2.86314 3.40402,5.92545 0,2.18506 -0.19057,2.83472 -1.125,3.83476 -1.45656,1.55883 -3.23604,2.46955 -4.81513,2.46432 -0.69296,-0.002 -6.72737,-1.12626 -13.40987,-2.49769 -6.6825,-1.37144 -13.9725,-2.79583 -16.2,-3.16532 -8.27397,-1.37244 -14.958,-2.40631 -18.675,-2.88861 -2.10375,-0.27297 -5.14125,-0.67894 -6.75,-0.90215 -1.60875,-0.22322 -5.05125,-0.62583 -7.65,-0.8947 -2.59875,-0.26888 -6.44625,-0.67357 -8.55,-0.89933 -2.10375,-0.22576 -6.66,-0.62123 -10.125,-0.87881 -3.465,-0.25759 -8.83125,-0.6705 -11.925,-0.91758 -15.17716,-1.21212 -48.67903,-1.65387 -68.625,-0.90489 -16.14281,0.60618 -23.0547,1.06414 -41.4,2.74308 -7.72934,0.70737 -16.87827,1.83913 -27.45,3.39566 -4.2075,0.61949 -8.96625,1.31518 -10.575,1.54598 -3.59972,0.51643 -9.23109,1.54756 -14.7375,2.6985 -2.28938,0.47852 -6.13688,1.2825 -8.55,1.78661 -2.41313,0.50412 -6.21,1.31553 -8.4375,1.80312 -4.89636,1.0718 -6.72257,1.09501 -8.72033,0.11085 z m -56.49418,-2.71804 c -3.66404,-3.57389 -5.61318,-6.47977 -6.94355,-10.3518 -1.09187,-3.17788 -1.2331,-5.44954 -0.40445,-6.50545 0.77666,-0.98965 9.65372,-7.55525 10.21514,-7.55525 0.25037,0 0.57603,0.55687 0.72369,1.2375 1.87114,8.62496 4.80472,12.94172 10.66118,15.6879 0.92812,0.4352 1.6875,1.02011 1.6875,1.29979 0,0.64154 -11.34956,9.22481 -12.19786,9.22481 -0.34514,0 -2.02889,-1.36688 -3.74165,-3.0375 z m 392.49713,0.62344 c -3.59577,-2.44016 -10.25762,-7.62385 -10.25762,-7.98163 0,-0.21231 0.86063,-0.82436 1.9125,-1.3601 5.78556,-2.9467 8.53047,-7.10506 10.43393,-15.80671 0.1489,-0.68063 0.50233,-1.2375 0.78543,-1.2375 0.28309,0 2.83693,1.74425 5.67517,3.87613 l 5.16051,3.87613 -0.27846,2.76137 c -0.52249,5.18113 -6.17553,14.18588 -10.21806,16.27634 -1.59457,0.8246 -1.35931,0.85419 -3.2134,-0.40403 z M 304.53686,252.12482 c -0.59424,-1.14914 -0.61517,-1.50252 -0.12406,-2.09482 0.32493,-0.39187 5.2063,-4.75574 10.84751,-9.69748 5.6412,-4.94174 10.18076,-9.21344 10.08792,-9.49268 -0.17036,-0.5123 -4.40128,-0.89204 -23.26965,-2.08851 -5.07375,-0.32174 -9.67093,-0.74709 -10.21595,-0.94525 -1.04514,-0.37997 -2.58693,-2.85662 -2.18409,-3.50842 0.1302,-0.21068 0.69535,-0.48372 1.25588,-0.60676 0.56054,-0.12304 4.96791,-1.26957 9.79416,-2.54784 21.84943,-5.78702 50.021,-10.96551 72.45,-13.31774 3.58875,-0.37637 9.36,-0.98123 12.825,-1.34413 3.465,-0.36291 12.88125,-1.08853 20.925,-1.6125 19.91765,-1.29744 61.32113,-1.43576 80.55,-0.2691 39.94655,2.42366 72.35334,7.16877 104.78043,15.34232 5.283,1.33162 9.80811,2.62379 10.05579,2.87147 0.61511,0.61507 -0.8208,3.58062 -1.89945,3.92297 -0.45454,0.14425 -3.42184,0.44481 -6.59407,0.66791 -3.17223,0.22309 -8.9564,0.62827 -12.85367,0.90041 -11.30337,0.78926 -13.98051,1.09538 -14.15371,1.61835 -0.0894,0.26998 4.7916,4.69632 10.84666,9.8363 6.05507,5.13999 11.12828,9.65576 11.27381,10.03504 0.14553,0.37928 -0.0641,1.19135 -0.46593,1.8046 -0.9149,1.39627 -0.71933,1.41828 -16.38986,-1.84466 -12.26389,-2.55361 -18.46386,-3.71774 -23.175,-4.35145 -1.485,-0.19975 -4.9275,-0.68348 -7.65,-1.07497 -9.11416,-1.31055 -11.22525,-1.589 -15.75,-2.07742 -2.475,-0.26715 -6.12,-0.67223 -8.1,-0.90015 -6.91605,-0.79615 -22.54123,-1.99919 -33.3,-2.56388 -8.71755,-0.45756 -61.13887,-0.45546 -71.1,0.003 -7.18207,0.33044 -9.75652,0.51791 -23.0625,1.67945 -10.43992,0.91134 -27.78101,2.93497 -34.7625,4.05663 -1.60875,0.25847 -4.3425,0.66428 -6.075,0.90182 -6.88992,0.94465 -29.33807,5.31403 -39.23677,7.63717 -3.40282,0.79861 -4.53427,0.59917 -5.32995,-0.93951 z m 37.09724,-8.71967 c 2.64658,-1.3686 3.79971,-4.91155 2.49408,-7.66296 -1.93717,-4.08229 -7.05375,-4.76033 -10.06258,-1.33345 -1.16025,1.32143 -1.38702,1.95369 -1.38702,3.867 0,2.05695 0.17593,2.46322 1.74705,4.03435 1.53033,1.53032 2.00763,1.74706 3.84735,1.74706 1.15516,0 2.66766,-0.2934 3.36112,-0.652 z m 215.32174,-0.95463 c 2.57211,-1.79214 3.33265,-5.89206 1.55583,-8.38732 -2.56505,-3.6023 -8.29175,-3.2863 -10.3608,0.57169 -1.10268,2.05601 -1.03604,4.01922 0.19917,5.86821 1.93711,2.89964 5.93932,3.80531 8.6058,1.94742 z m -178.17447,-5.79787 c 18.5256,-5.49125 22.24786,-18.13863 6.68561,-22.71617 -3.84957,-1.13232 -13.11077,-1.4029 -17.4634,-0.51021 -7.38559,1.51472 -13.49816,4.29961 -16.94062,7.71816 -2.94068,2.92025 -3.67787,4.52629 -3.43301,7.47906 0.17112,2.06351 0.45393,2.67855 1.9238,4.18384 3.79223,3.88359 9.54367,5.46981 18.89983,5.21249 5.16075,-0.14194 7.02835,-0.38917 10.32779,-1.36717 z m -18.20279,-2.03566 c -7.08044,-1.10237 -10.46056,-3.85571 -9.70139,-7.90244 0.64192,-3.4217 6.49634,-7.23308 14.35515,-9.34556 3.10941,-0.83583 4.84195,-0.98533 11.32124,-0.97694 7.6087,0.01 7.66601,0.0174 10.61629,1.40554 4.44234,2.0901 5.85693,4.6706 4.25669,7.7651 -1.60802,3.10959 -7.31887,6.38806 -14.17818,8.1394 -4.04698,1.03329 -12.81764,1.51465 -16.6698,0.9149 z m 173.53422,2.08917 c 6.09345,-1.68734 10.51578,-5.57064 10.51578,-9.23409 0,-3.48603 -3.46023,-7.82858 -8.36145,-10.4935 -3.14919,-1.71232 -8.67262,-3.47994 -13.18675,-4.22008 -11.80242,-1.93511 -23.16648,1.32735 -25.92398,7.4424 -0.74411,1.65015 -0.77878,2.1267 -0.28815,3.96112 1.70931,6.3909 10.41177,11.37872 23.23533,13.31731 2.5016,0.37817 11.68088,-0.12843 14.00922,-0.77316 z m -13.10922,-2.40884 c -9.51192,-1.23288 -17.71848,-4.73315 -20.0887,-8.56824 -2.86611,-4.63746 0.53557,-8.2867 9.0979,-9.76002 7.1969,-1.23837 16.55303,0.0287 23.33354,3.15997 4.38619,2.02556 6.18291,3.44665 7.32195,5.7911 1.0408,2.14225 0.9076,3.46989 -0.53168,5.29961 -2.41096,3.06506 -11.68915,5.04241 -19.13301,4.07758 z m -109.70238,1.35834 c 5.18298,-2.45949 3.86194,-10.33334 -1.8781,-11.19411 -2.18593,-0.3278 -3.84423,0.33737 -5.64452,2.26409 -0.90999,0.9739 -1.125,1.66447 -1.125,3.61321 0,2.05993 0.19571,2.61597 1.35,3.8355 2.2358,2.36217 4.48095,2.8179 7.29762,1.48131 z m 75.33001,-0.47619 c 1.81339,-1.07119 3.26819,-4.17016 2.85048,-6.07199 -0.71298,-3.24617 -2.79947,-4.85033 -6.30871,-4.85033 -1.83972,0 -2.31702,0.21673 -3.84734,1.74705 -1.58447,1.58447 -1.74706,1.96631 -1.74706,4.10295 0,2.13663 0.16259,2.51847 1.74706,4.10294 1.5352,1.53519 2.00427,1.74706 3.86807,1.74706 1.20193,0 2.69147,-0.33698 3.4375,-0.77768 z m -26.04013,-8.18042 c 7.11563,-3.48378 12.9375,-6.49804 12.9375,-6.69836 0,-0.49151 -2.35126,-1.61059 -15.44018,-7.34875 -6.14084,-2.69214 -11.64227,-4.8948 -12.22539,-4.8948 -0.58312,0 -4.06379,1.38559 -7.73482,3.07907 -3.67104,1.69349 -9.46,4.35709 -12.86437,5.91911 -3.40436,1.56202 -6.41694,3.11379 -6.69461,3.44836 -0.54805,0.66036 -1.57063,0.13016 16.93437,8.78031 7.06725,3.30357 9.79039,4.37097 10.8,4.2333 0.7425,-0.10125 7.17187,-3.03446 14.2875,-6.51824 z m -17.4375,2.20562 c -2.35661,-1.12283 -7.80331,-3.59153 -11.475,-5.20103 -4.27474,-1.87385 -5.625,-2.67599 -5.625,-3.34163 0,-0.48754 16.29281,-8.33096 19.26531,-9.2744 1.05686,-0.33543 20.55969,8.25186 20.55969,9.05264 0,0.30618 -0.25313,0.76457 -0.5625,1.01864 -1.14217,0.93798 -18.49023,8.64749 -19.40999,8.62583 -0.52388,-0.0123 -1.76251,-0.40836 -2.75251,-0.88005 z m -104.12206,-2.19458 c 1.57398,-1.57399 1.74706,-1.97508 1.74706,-4.04871 0,-2.00524 -0.20605,-2.52971 -1.60003,-4.07268 -2.57353,-2.84859 -5.68532,-2.96385 -8.49432,-0.31461 -2.01272,1.89824 -2.46812,4.17148 -1.33782,6.67804 1.06584,2.36362 2.93213,3.50117 5.74761,3.50333 1.94549,0.001 2.38581,-0.19368 3.9375,-1.74537 z m 220.42933,0.57665 c 3.72384,-1.49 4.88192,-6.35845 2.2307,-9.378 -3.04929,-3.47296 -8.09357,-2.78139 -9.92588,1.36083 -1.52977,3.45834 -0.10179,6.80633 3.43791,8.06037 2.27939,0.80753 2.1272,0.80907 4.25727,-0.0432 z m -147.06154,-9.04263 c 3.63015,-3.63015 1.09042,-10.03697 -3.97877,-10.03697 -6.254,0 -8.74102,6.955 -3.86345,10.80423 1.04048,0.82112 1.67771,0.95283 3.85562,0.79695 2.17673,-0.15579 2.8374,-0.41501 3.9866,-1.56421 z m 74.95741,0.51105 c 2.30271,-1.50699 3.19226,-5.8539 1.67257,-8.17325 -1.81132,-2.76441 -5.65829,-3.59695 -8.34666,-1.80633 -4.14116,2.75827 -3.76771,8.50812 0.68279,10.51281 1.59588,0.71885 4.4688,0.46316 5.9913,-0.53323 z m -191.80314,27.88832 c -8.78399,-1.50203 -10.125,-1.8586 -10.125,-2.6922 0,-0.71271 6.95827,-12.59163 7.61266,-12.99606 0.22552,-0.13938 5.6418,0.15077 12.03619,0.64479 6.39438,0.49401 11.87927,0.90021 12.18865,0.90267 1.82121,0.0144 0.29027,1.64558 -10.9125,11.62656 -4.07587,3.63134 -4.15687,3.6502 -10.8,2.51424 z M 582.374,240.34465 c -7.1172,-6.25578 -8.5037,-7.67921 -7.98512,-8.19779 0.2313,-0.23133 21.15419,-2.01917 23.79834,-2.03355 0.98069,-0.005 1.63341,0.83478 4.8375,6.22637 2.03711,3.42789 3.70386,6.55229 3.70386,6.9431 0,0.49735 -0.70884,0.85191 -2.3625,1.18168 -3.68806,0.73546 -13.18315,2.29269 -13.97952,2.29269 -0.39433,0 -4,-2.88563 -8.01256,-6.4125 z M 281.94994,220.88998 c -3.93441,-1.7104 -4.33755,-7.90107 -0.68395,-10.50267 1.58883,-1.13135 7.48022,-3.09724 15.86259,-5.29318 3.34125,-0.87531 6.98625,-1.85887 8.1,-2.18568 1.11375,-0.32681 2.88562,-0.82893 3.9375,-1.11581 3.20229,-0.8734 2.20493,-1.38545 -2.7,-1.38619 -11.49867,-0.002 -25.42135,-4.66985 -34.63493,-11.61268 -1.80266,-1.35839 -4.72412,-3.85733 -6.49211,-5.55321 -1.768,-1.69588 -3.31191,-3.08342 -3.43093,-3.08342 -0.11901,0 -1.0773,0.30375 -2.12953,0.675 -3.72921,1.31575 -7.28361,0.62879 -9.63728,-1.86259 -2.34828,-2.48568 -3.1677,-6.22146 -1.98038,-9.02873 0.29279,-0.69227 1.44986,-2.22086 2.57125,-3.39685 l 2.03891,-2.13818 -1.47587,-2.9929 c -0.81172,-1.64609 -2.60623,-4.70934 -3.9878,-6.80723 -2.68235,-4.0731 -10.40662,-12.47212 -11.90856,-12.94882 -0.6183,-0.19624 -1.28316,0.0655 -2.10001,0.82659 -2.42503,2.25964 -5.18855,2.85728 -9.2793,2.00676 -2.42543,-0.50428 -2.84256,-0.76815 -4.32917,-2.73857 -4.08225,-5.41081 -3.42837,-11.3352 1.78678,-16.18881 3.45129,-3.21202 5.76292,-4.12807 10.41869,-4.12866 3.71075,-4.5e-4 4.00596,0.0791 8.62548,2.32509 5.29292,2.57339 5.20935,2.58043 6.805,-0.5728 0.81712,-1.61474 3.40311,-4.01023 4.81181,-4.45733 2.89116,-0.91762 6.87193,1.90332 9.21736,6.5318 2.80043,5.5264 4.04127,16.26505 2.95513,25.57485 l -0.54292,4.65361 1.56314,3.29153 c 4.97506,10.47606 14.22334,19.33315 24.59774,23.55729 6.12938,2.49569 10.3657,3.32831 17.1,3.36089 6.54357,0.0316 9.99901,-0.47729 15.28266,-2.25096 8.73184,-2.93118 13.94471,-6.62049 22.56636,-15.97095 l 1.52598,-1.65498 7.85747,-0.96466 c 4.32162,-0.53057 8.03601,-1.075 8.25421,-1.20986 0.2182,-0.13486 -0.67819,-0.7823 -1.99198,-1.43876 -4.08947,-2.04339 -5.99811,-5.85401 -4.92613,-9.83506 1.91839,-7.12437 11.23371,-8.63696 15.30814,-2.48569 1.59638,2.4101 1.84797,5.50765 0.65203,8.0279 -1.01308,2.1349 -3.87949,4.58478 -5.78186,4.94167 -0.88375,0.16579 -1.70651,0.46273 -1.82834,0.65986 -0.36811,0.59562 5.42748,4.45346 9.55541,6.36057 2.13046,0.98428 5.81475,2.3274 8.18731,2.9847 3.82682,1.06021 5.12646,1.19648 11.51374,1.2072 6.51819,0.0109 7.62337,-0.10619 11.67084,-1.23692 15.43338,-4.31159 28.53936,-17.20292 32.82661,-32.28899 1.55736,-5.48008 2.23397,-12.74292 1.40421,-15.07289 -1.22944,-3.45222 -0.64491,-6.10845 1.96221,-8.91679 1.76532,-1.90158 3.33024,-2.54733 6.17317,-2.54733 3.05928,0 5.0485,1.06309 6.98099,3.73081 1.12967,1.55947 1.30697,2.20881 1.30697,4.78658 0,2.03505 -0.23427,3.31682 -0.73752,4.03532 -1.07463,1.53425 -0.593,8.48281 0.9546,13.77229 2.08954,7.14173 7.2217,15.69224 12.11262,20.18041 5.10745,4.68687 10.7377,8.28887 16.4703,10.53701 13.48299,5.28759 29.63975,3.19511 42.525,-5.50748 l 3.6,-2.4314 8.39894,1.01461 8.39889,1.01461 4.87611,4.95935 c 2.68182,2.72764 6.09106,5.74618 7.57606,6.70786 9.3879,6.07959 20.72421,9.02094 30.22169,7.8414 11.30886,-1.40451 20.55118,-5.73106 28.07622,-13.14314 3.96522,-3.90573 8.47102,-10.31475 10.34091,-14.70886 1.29226,-3.03682 1.32196,-3.26125 0.85113,-6.4305 -0.26834,-1.80613 -0.46845,-6.01762 -0.44465,-9.35887 0.0712,-9.99802 1.85508,-16.43501 5.74916,-20.74529 3.29157,-3.64338 6.21954,-4.1061 9.16182,-1.4479 1.00863,0.91124 2.22133,2.41625 2.69487,3.34447 0.47353,0.92821 1.09453,1.832 1.38001,2.00842 0.28544,0.17642 2.36394,-0.62672 4.61894,-1.78477 6.15357,-3.16021 11.07855,-3.64338 15.3499,-1.50591 6.55952,3.28249 10.06736,9.76772 8.1532,15.07342 -0.85806,2.37847 -3.16621,5.78568 -4.34768,6.41798 -0.48699,0.26065 -2.16855,0.59373 -3.73676,0.74017 -3.2773,0.30604 -5.51223,-0.27729 -7.51324,-1.96102 -0.94937,-0.79886 -1.66028,-1.05437 -2.40993,-0.86621 -1.34933,0.33866 -7.75134,7.07824 -10.66559,11.228 -2.59177,3.69055 -6.255,10.26561 -6.255,11.227 0,0.36565 0.68801,1.1896 1.52892,1.831 5.18279,3.95307 4.22897,11.96753 -1.75392,14.73751 -2.23974,1.03696 -3.76398,1.06021 -6.79846,0.10368 l -2.37753,-0.74946 -4.06638,3.86969 c -7.10276,6.75918 -15.92721,11.85127 -25.1222,14.4966 -4.58235,1.3183 -12.375,2.46083 -16.87293,2.47384 -1.67062,0.005 -3.0375,0.19764 -3.0375,0.42846 0,0.50457 -0.0373,0.49274 7.875,2.50039 12.81744,3.25229 20.29235,5.64841 21.99249,7.04979 3.50267,2.88722 2.92541,8.62624 -1.03266,10.26571 -2.0605,0.85351 -4.77792,0.41898 -16.4142,-2.62472 -5.91489,-1.54715 -11.58489,-2.98083 -12.6,-3.18595 -1.01511,-0.20511 -4.78188,-0.99822 -8.37063,-1.76247 -3.58875,-0.76424 -7.74,-1.58402 -9.225,-1.82174 -1.485,-0.23771 -5.43375,-0.93619 -8.775,-1.55216 -7.89831,-1.45609 -27.076,-4.09996 -36.225,-4.99404 -3.96,-0.38699 -9.12375,-0.90055 -11.475,-1.14126 -15.53705,-1.59058 -28.83544,-2.02798 -60.75,-1.99815 -21.82637,0.0204 -34.20131,0.21084 -38.475,0.59211 -3.465,0.30912 -9.23625,0.73841 -12.825,0.95396 -3.58875,0.21556 -8.49938,0.60724 -10.9125,0.87039 -2.41313,0.26316 -6.36188,0.69167 -8.775,0.95227 -10.19628,1.10108 -11.82261,1.29637 -16.5375,1.98579 -22.38568,3.2733 -41.66502,6.94479 -54.675,10.41215 -21.39653,5.70248 -20.72092,5.57301 -23.27864,4.46109 z m 51.31744,-24.11803 c 1.77991,-0.26685 6.50667,-1.06822 10.5039,-1.78082 3.99725,-0.71259 13.71725,-2.11219 21.6,-3.11022 7.88277,-0.99802 15.74978,-2.04659 17.48226,-2.33014 3.69084,-0.60408 3.58573,-0.67008 -3.90047,-2.4491 -5.91518,-1.40567 -12.38009,-4.11726 -18.17421,-7.62283 -2.24691,-1.35943 -4.24074,-2.4717 -4.43073,-2.4717 -0.18999,0 -2.60648,2.29517 -5.36999,5.10038 -5.41871,5.50046 -10.77437,9.37372 -17.26061,12.48301 -2.02733,0.97183 -3.81116,1.96938 -3.96406,2.21679 -0.34258,0.55431 -0.42469,0.55513 3.51391,-0.0354 z m 231.6112,-0.60509 c 0,-0.10466 -2.11995,-1.20296 -4.71096,-2.44067 -6.63592,-3.16992 -12.30831,-7.19917 -17.67717,-12.55655 -2.54227,-2.53687 -4.88385,-4.6125 -5.20344,-4.6125 -0.31963,0 -2.35813,1.11571 -4.53001,2.47935 -6.71513,4.21615 -16.0596,7.68078 -24.35342,9.02949 -2.39836,0.39001 -1.17657,0.85433 3.375,1.2826 1.85625,0.17467 9.75375,1.11163 17.55,2.08215 12.13214,1.51028 18.40194,2.45192 29.7,4.46054 2.25423,0.40077 5.85,0.57016 5.85,0.27559 z m -126.675,-9.50371 c 5.445,-0.14 17.7975,-0.066 27.45,0.16442 9.6525,0.23044 17.82529,0.27154 18.16176,0.0913 0.70523,-0.37772 0.5908,-0.43484 -4.16776,-2.08054 -4.15428,-1.43672 -10.92026,-5.09204 -15.37936,-8.3087 -4.454,-3.21298 -10.82916,-9.81541 -14.11394,-14.61712 -1.34712,-1.96921 -2.65874,-3.72201 -2.91472,-3.89512 -0.59358,-0.4014 -1.82331,0.71067 -3.05214,2.76013 -1.87206,3.12223 -7.486,9.78924 -10.31593,12.25101 -6.26691,5.45158 -12.63594,9.32078 -19.85541,12.0622 -2.16563,0.82234 -3.9375,1.69426 -3.9375,1.93761 0,0.28446 3.25376,0.3437 9.1125,0.1659 5.01187,-0.1521 13.5675,-0.3911 19.0125,-0.53111 z m -148.725,-15.09551 c -6.36409,-1.06381 -14.50225,-2.67057 -14.96038,-2.95371 -0.9293,-0.57435 0.0967,-1.77771 4.94788,-5.80344 5.72417,-4.75013 9.1125,-7.85693 9.1125,-8.35535 0,-0.42348 -5.82308,2.0822 -12.09551,5.20471 -2.81628,1.40199 -5.40782,2.43881 -5.75899,2.30405 -0.79056,-0.30336 -0.63173,-1.293 1.67611,-10.44369 3.16554,-12.55149 5.6752,-18.43845 9.5627,-22.4314 2.89135,-2.96978 6.48409,-4.2832 9.35966,-3.42166 2.4951,0.74755 4.16364,3.46957 4.72618,7.71019 0.16828,1.26854 0.5576,2.40301 0.86516,2.52103 0.30756,0.11802 1.79183,-0.30422 3.29838,-0.93832 5.96416,-2.51028 11.06905,-0.93715 13.67881,4.21528 2.2687,4.4791 1.50695,8.02533 -2.62291,12.21053 -2.76943,2.80656 -2.78437,2.72189 0.86594,4.91037 2.49242,1.49428 4.34447,4.23238 4.34447,6.42292 0,3.94421 -3.25642,7.8442 -7.5574,9.05099 -3.62439,1.01696 -12.71374,0.92229 -19.4426,-0.2025 z m 297.225,0.51872 c -3.57426,-0.87015 -7.12143,-3.98069 -7.91955,-6.94474 -0.89248,-3.31435 0.73103,-6.23355 5.42696,-9.75807 l 1.53031,-1.14859 -2.73766,-2.10659 c -3.13263,-2.41051 -4.62506,-4.97537 -4.62506,-7.94859 0,-7.86929 6.59043,-12.22347 14.44203,-9.54163 1.33817,0.45706 2.6861,0.74393 2.99547,0.6375 0.32441,-0.11159 0.5625,-0.95786 0.5625,-1.99925 0,-0.99316 0.31586,-2.89221 0.70187,-4.22011 1.2933,-4.44876 4.7277,-5.96728 9.47709,-4.19031 4.54189,1.69934 8.2728,6.5901 12.10941,15.87399 2.18245,5.28118 5.54049,15.21477 5.71878,16.91717 0.10354,0.98818 -0.0464,1.11702 -1.23215,1.05931 -0.7425,-0.0361 -4.73125,-1.40301 -8.86387,-3.0375 -4.13258,-1.63449 -7.87883,-2.96358 -8.325,-2.95352 -1.1313,0.0255 1.003,1.79098 7.96387,6.58754 5.84618,4.02845 7.65,5.45579 7.65,6.05329 0,0.80161 -17.24215,5.46766 -24.01524,6.49896 -4.3915,0.66868 -8.66407,0.75568 -10.85976,0.22114 z m -245.925,-7.49665 c -7.15035,-3.09717 -7.18859,-12.76899 -0.0623,-15.74656 5.33519,-2.22919 11.76226,1.9961 11.76226,7.73274 0,3.04715 -2.22903,6.62783 -5.04016,8.09643 -1.57172,0.82111 -4.66195,0.78277 -6.65984,-0.0826 z m 207.06534,-1.11404 c -5.05872,-2.02615 -7.08102,-7.70752 -4.3825,-12.31218 0.96237,-1.64218 1.78996,-2.38753 3.57237,-3.21743 2.63614,-1.22742 3.70048,-1.31808 6.30679,-0.53722 4.16165,1.24686 7.01415,6.45507 5.70609,10.41845 -1.52127,4.60948 -6.95565,7.34946 -11.20275,5.64838 z m -19.52874,-1.9613 c -4.19503,-1.49523 -6.53292,-4.97317 -6.07486,-9.03715 0.59305,-5.26158 6.75364,-9.1501 11.41249,-7.20351 6.01758,2.5143 7.57881,10.38202 2.84981,14.36121 -2.516,2.11709 -5.5602,2.81589 -8.18744,1.87945 z M 403.42562,149.1821 c -5.52651,-1.96877 -6.75989,-5.88307 -3.82567,-12.14118 0.61664,-1.31518 0.99937,-2.51303 0.8505,-2.6619 -0.14886,-0.14887 -1.52248,-0.44187 -3.05248,-0.65111 -4.73519,-0.64758 -7.79422,-3.02687 -8.86581,-6.89577 -0.79085,-2.85528 -0.60138,-5.25203 0.60686,-7.67666 1.35409,-2.71729 3.84776,-4.45911 7.38718,-5.15991 4.7408,-0.93866 4.66841,-0.84441 3.19936,-4.16544 -3.07408,-6.94948 -0.38137,-11.181226 7.14472,-11.228336 2.6341,-0.0165 3.56633,0.21476 6.44248,1.598126 3.69441,1.77694 7.46749,4.40377 12.29082,8.55691 4.68685,4.03562 11.475,10.7802 11.475,11.40135 0,0.29991 -0.8578,0.65785 -1.9125,0.79805 -7.1822,0.95476 -13.08392,1.69373 -15.31279,1.91735 -2.67333,0.26821 -3.64501,0.78935 -2.24375,1.20338 0.43673,0.12903 4.23654,0.64795 8.44404,1.15314 11.56259,1.38831 11.475,1.3727 11.475,2.04582 0,0.3375 -3.08813,3.55771 -6.8625,7.15603 -13.96973,13.31812 -20.83113,17.03343 -27.24046,14.75015 z m 79.40591,-0.74594 c -2.04093,-0.77727 -6.55269,-3.43595 -9.07795,-5.34944 -2.92414,-2.21573 -11.45329,-9.86033 -14.85,-13.30991 -3.57939,-3.63511 -3.54059,-3.826 0.87069,-4.28394 5.71488,-0.59328 15.74223,-2.09617 16.38473,-2.45573 0.96006,-0.53728 -0.33062,-0.75051 -14.74796,-2.43649 -2.5809,-0.30181 -4.76331,-0.76106 -4.8498,-1.02055 -0.20419,-0.61255 9.91339,-10.45539 14.46604,-14.07321 7.53527,-5.988006 11.30875,-7.787016 16.30124,-7.771636 3.40664,0.0105 5.12576,0.60901 6.67612,2.324326 1.31219,1.45179 1.21215,6.15504 -0.19886,9.34876 -0.5774,1.3069 -0.96703,2.45898 -0.86585,2.56015 0.10118,0.10119 1.69815,0.49868 3.54881,0.88332 6.06583,1.26074 9.16471,4.61608 9.15211,9.90967 -0.0131,5.59791 -3.63078,9.42201 -9.48455,10.02617 -1.5288,0.15779 -2.55079,0.49689 -2.70446,0.89737 -0.13587,0.35405 0.22635,1.58949 0.80492,2.74543 1.51087,3.01858 1.70605,6.77376 0.45711,8.79458 -1.89761,3.0704 -7.95414,4.70714 -11.88234,3.21113 z m -134.77723,-2.0946 c -6.31697,-3.12682 -5.87733,-12.45822 0.7202,-15.28625 2.25629,-0.96716 3.2427,-1.03377 5.6026,-0.37836 3.38967,0.9414 6.18171,4.59092 6.18171,8.08019 0,3.13323 -2.63117,6.97913 -5.52203,8.07137 -2.00862,0.75892 -4.86845,0.55947 -6.98248,-0.48695 z m 191.86269,-0.64164 c -4.27558,-1.58972 -6.74388,-5.98741 -5.64696,-10.06103 0.61745,-2.29307 2.77506,-4.80467 4.9113,-5.71707 2.10348,-0.89842 5.38025,-0.90514 7.1024,-0.0146 1.75437,0.90722 4.11646,3.60105 4.41337,5.03316 0.12731,0.61421 0.32697,1.58471 0.4437,2.15667 0.51615,2.52928 -1.89045,6.73493 -4.6665,8.15486 -1.93419,0.98931 -4.6098,1.17211 -6.55731,0.448 z M 437.11562,107.37826 c -7.61104,-7.826456 -12.14583,-13.416966 -14.2478,-17.564756 -1.58605,-3.12973 -1.76424,-3.82224 -1.76424,-6.85636 0,-7.7023 4.5964,-10.79265 11.7,-7.8664 1.485,0.61173 2.94072,1.11317 3.23493,1.11432 0.29578,0.001 0.67158,-0.95352 0.8406,-2.13542 0.98443,-6.88367 4.95763,-10.40397 11.17888,-9.90459 5.28087,0.4239 8.21757,3.56896 9.03782,9.67909 0.1744,1.2991 0.49158,2.46984 0.70486,2.60165 0.21327,0.13181 1.6057,-0.27296 3.09428,-0.8995 5.42224,-2.28218 9.54927,-1.1985 10.75442,2.82391 2.25622,7.53062 -1.81817,15.15813 -15.8512,29.674436 -2.45242,2.53688 -4.71769,4.6125 -5.03394,4.6125 -0.77494,0 -0.92454,-0.63922 -1.73767,-7.425 -0.38555,-3.2175 -0.90165,-7.064996 -1.14689,-8.549996 -0.24523,-1.485 -0.44705,-2.85187 -0.44848,-3.0375 -0.001,-0.18562 -0.17733,-0.3375 -0.39087,-0.3375 -0.42545,0 -1.0291,3.51901 -2.0842,12.149996 -0.84914,6.94616 -1.00476,7.64783 -1.69861,7.65862 -0.30466,0.005 -3.06851,-2.57715 -6.14189,-5.7375 z"
         id="path3350"
         inkscape:connector-curvature="0" />
      <path
         style="fill:#8a3948"
         d="m 534.31413,690.39371 c -0.55759,-0.51948 -1.40386,-1.85445 -1.88055,-2.96654 -0.84595,-1.97352 -0.89086,-2.00466 -1.87335,-1.29816 -2.11603,1.52154 -3.6198,2.14304 -5.37565,2.2217 -1.73628,0.0778 -1.8486,-5e-5 -2.48076,-1.71855 -0.36419,-0.99 -0.76991,-3.6437 -0.90158,-5.89707 -0.31446,-5.38074 0.47187,-7.82802 3.62673,-11.28708 5.04581,-5.53239 16.32398,-8.53911 29.60379,-7.89224 3.61472,0.17609 3.94646,0.11696 4.86626,-0.86733 1.35738,-1.45255 3.35497,-5.84762 4.31266,-9.48848 0.58203,-2.2126 0.72707,-3.91545 0.53663,-6.3 -0.51426,-6.43819 -2.93243,-11.30058 -8.44745,-16.98597 -3.16386,-3.26155 -3.59037,-3.54595 -6.075,-4.05049 -4.06327,-0.82508 -15.08665,-3.90767 -17.80771,-4.97975 -7.63002,-3.00618 -14.06696,-7.49043 -16.3539,-11.39278 -0.608,-1.03748 -1.64007,-4.1076 -2.29352,-6.82254 -0.65349,-2.71494 -1.41012,-5.07488 -1.68142,-5.24426 -0.27135,-0.16938 -1.00913,-0.22558 -1.63953,-0.12487 -15.82064,2.52729 -20.25522,4.25209 -23.22781,9.03415 l -0.93161,1.49873 -1.63656,-1.72706 c -2.78435,-2.93832 -4.28152,-3.42585 -10.45022,-3.40276 -4.88247,0.018 -5.81932,0.16159 -9.77531,1.49553 -7.49932,2.52877 -8.5536,5.41611 -3.64928,9.99409 0.94852,0.88542 2.63584,2.29244 3.74959,3.12674 6.03161,4.51813 8.15764,7.11751 9.6711,11.82415 1.50155,4.66961 1.53422,8.8484 0.0907,11.606 -1.33596,2.55222 -4.46721,4.68729 -7.85317,5.35477 -4.92791,0.97151 -7.11201,1.71347 -12.70868,4.31739 -10.78575,5.01818 -20.70647,11.03801 -27.57288,16.73101 -3.5806,2.96869 -8.57346,8.36541 -10.04662,10.85926 -0.4535,0.76775 -0.96559,1.39586 -1.13797,1.39586 -0.17238,0 -0.44947,-0.80528 -0.61576,-1.78952 -0.34338,-2.03242 -1.71501,-4.25538 -3.39152,-5.49648 -0.82645,-0.61182 -1.93972,-0.85077 -4.05,-0.86931 -2.546,-0.0225 -3.38788,0.21231 -6.72632,1.87475 -5.305,2.64172 -8.25588,3.59761 -12.03809,3.89947 -5.3842,0.42975 -7.9923,-1.01286 -9.98804,-5.52456 -1.06812,-2.41465 -4.59482,-5.24047 -8.16486,-6.54219 -1.48257,-0.54054 -2.80631,-1.16199 -2.94164,-1.38096 -0.45524,-0.7366 2.08088,-4.38547 4.14187,-5.95912 1.12378,-0.85811 3.09254,-1.90238 4.37503,-2.32066 3.29544,-1.07482 3.57284,-1.3617 2.78659,-2.88216 -0.77567,-1.49998 -1.4751,-1.80927 -4.0916,-1.80927 -1.82747,0 -1.98819,-0.0921 -1.98819,-1.13944 0,-1.61069 1.195,-4.27388 2.5547,-5.69345 0.63632,-0.66433 2.2962,-1.6578 3.68862,-2.20765 1.39243,-0.5499 2.7263,-1.17297 2.96418,-1.38461 0.57737,-0.51376 -0.86618,-1.91947 -3.07068,-2.99025 l -1.73818,-0.84424 1.51318,-1.46156 c 1.97823,-1.91074 6.49687,-4.07929 8.48818,-4.07358 3.90582,0.0113 5.7601,1.08315 10.77459,6.22881 5.2149,5.35131 8.56684,7.77906 13.67806,9.90689 8.23554,3.42846 15.98804,2.41384 24.30669,-3.18114 3.30367,-2.22201 9.13287,-7.98615 9.76943,-9.66047 1.27735,-3.35965 -2.00968,-9.5553 -9.03642,-17.03245 -4.80505,-5.11304 -7.2122,-9.52587 -8.41808,-15.43217 -1.80427,-8.8371 2.3334,-18.92475 10.64795,-25.95969 1.75511,-1.485 4.25123,-3.25629 5.54694,-3.93619 7.24077,-3.79949 18.48966,-5.50463 36.10584,-5.47299 10.42474,0.0189 28.41728,0.82557 30.67551,1.3756 1.341,0.32661 1.96101,-0.98824 2.007,-4.2561 0.0256,-1.81953 -0.24399,-3.18136 -0.87075,-4.39798 -3.29485,-6.39576 -14.4359,-10.58243 -29.78676,-11.19353 -18.22424,-0.72549 -36.88935,-4.01346 -50.17199,-8.83818 -5.58765,-2.02959 -13.50337,-6.15721 -17.9119,-9.34011 -6.2644,-4.52277 -10.81964,-10.09026 -13.4249,-16.40808 -0.73186,-1.7748 -1.50561,-3.40182 -1.71944,-3.61566 -0.61943,-0.61942 -5.88608,2.42001 -8.24618,4.75902 -2.17869,2.15919 -3.63379,4.86113 -4.17686,7.75593 -0.16439,0.87633 -0.44669,1.59327 -0.62733,1.59327 -0.18063,0 -2.03122,-1.33249 -4.11242,-2.96104 l -3.78398,-2.96109 -1.46352,1.68723 c -1.56239,1.80117 -4.4945,7.58754 -4.91811,9.70555 -0.14073,0.70362 -0.42417,1.27935 -0.62986,1.27935 -0.2057,0 -1.42284,-2.04187 -2.70476,-4.53753 -1.28193,-2.49565 -2.62388,-4.65003 -2.98212,-4.7875 -1.16782,-0.44811 -10.52929,9.5413 -12.46798,13.30434 -0.42626,0.82737 -0.85911,1.42024 -0.9619,1.31746 -0.10278,-0.10278 -0.3946,-2.1901 -0.64849,-4.63851 -0.25388,-2.44836 -0.65709,-4.6471 -0.89603,-4.88601 -0.88429,-0.88429 -8.53481,3.43836 -12.44063,7.02914 l -2.09236,1.92361 0.28047,-2.025 c 0.89483,-6.46069 0.8999,-6.75 0.1183,-6.75 -0.41136,0 -1.80433,0.53672 -3.09547,1.19273 -8.75233,4.44685 -16.49923,2.75958 -20.14552,-4.38777 -0.48398,-0.94869 -1.27099,-1.93415 -1.74891,-2.18993 -1.33909,-0.71662 -3.84536,-0.55476 -6.64505,0.42926 -1.39945,0.49189 -2.63249,0.80626 -2.74009,0.69867 -0.1076,-0.1076 0.23494,-0.89231 0.7612,-1.7438 1.13753,-1.84059 4.74955,-4.68738 8.03333,-6.3315 1.29937,-0.65056 2.3625,-1.36534 2.3625,-1.58845 0,-2.15915 -2.38132,-3.3521 -6.75,-3.38148 l -3.375,-0.023 -0.14109,-1.71135 c -0.19319,-2.34342 1.40392,-5.48186 3.59867,-7.07175 0.96974,-0.70245 3.06912,-1.7456 4.66529,-2.31804 1.59617,-0.57245 2.90213,-1.17648 2.90213,-1.34235 0,-0.7565 -3.28858,-2.95389 -7.0875,-4.73589 -2.28938,-1.07388 -4.1625,-2.04701 -4.1625,-2.16252 0,-0.38277 2.80565,-1.66892 6.71602,-3.07863 3.45283,-1.24479 4.40363,-1.3928 9.03398,-1.40625 6.24991,-0.0184 7.00714,0.30343 12.88954,5.47497 7.75321,6.81624 10.21472,7.85718 18.61046,7.87018 6.35276,0.01 12.26382,-1.00606 19.35,-3.32545 4.9156,-1.60898 14.4,-5.94734 14.4,-6.58688 0,-0.7033 -1.37111,-2.1087 -4.95,-5.07379 -5.81044,-4.81388 -11.34082,-6.72152 -15.02433,-5.18243 -0.95457,0.39884 -1.8121,0.72518 -1.90563,0.72518 -0.0935,0 -0.17004,-2.50646 -0.17004,-5.56992 0,-3.92369 -0.16625,-5.69858 -0.5625,-6.0053 -0.38164,-0.29542 -2.22646,0.10553 -5.7375,1.247 -2.84625,0.92529 -5.32688,1.59075 -5.5125,1.47874 -0.18563,-0.112 -0.3375,-1.70046 -0.3375,-3.52993 0,-3.70593 -0.65371,-7.36173 -1.5309,-8.56139 -0.54806,-0.74952 -0.73993,-0.74052 -3.75569,0.17546 -1.74797,0.53095 -3.29857,0.96534 -3.44577,0.96534 -0.50807,0 -0.26476,-1.66748 0.6175,-4.2318 1.87503,-5.44989 2.39607,-11.28859 1.35304,-15.16208 -0.59607,-2.21343 -3.42908,-5.3559 -4.82867,-5.3559 -1.60929,0 -4.79377,-1.3584 -6.10685,-2.60498 -2.28224,-2.16668 -2.87114,-3.93268 -3.10789,-9.32002 -0.40153,-9.13662 -3.5998,-13.88628 -11.516,-17.10206 -1.40457,-0.57057 -2.6137,-1.33159 -2.68694,-1.69114 -0.0732,-0.35955 0.98755,-1.67799 2.35731,-2.92987 2.87371,-2.62641 5.6858,-3.7437 10.37586,-4.12251 l 3.15,-0.25442 0.13898,-1.67617 c 0.3077,-3.71079 -3.1318,-7.22835 -7.65458,-7.82833 -1.19878,-0.15902 -2.27669,-0.44622 -2.39535,-0.63822 -0.38204,-0.61814 5.30646,-2.25604 8.78595,-2.52974 3.18213,-0.25032 4.50362,-0.053 9.78203,1.46077 0.70177,0.20125 1.0916,0.0684 1.28603,-0.43826 0.48118,-1.25395 -0.234,-2.95821 -2.08331,-4.96447 -0.98162,-1.06493 -1.78475,-2.0604 -1.78475,-2.21215 0,-0.85564 7.93701,1.51371 12.375,3.69417 4.77526,2.34617 7.91853,5.19629 9.68258,8.7796 1.47908,3.00443 1.60252,3.99859 1.40341,11.3028 -0.20391,7.4803 0.76726,12.32315 4.28649,21.375 5.68989,14.63504 15.3134,26.83583 29.80129,37.78241 l 3.77376,2.85133 2.19722,-0.79011 c 1.20846,-0.43456 2.90849,-0.70708 3.77783,-0.60556 1.29456,0.15111 1.52733,0.0581 1.28617,-0.51426 -1.03733,-2.46173 -1.19872,-3.12512 -0.93038,-3.82442 0.25796,-0.67221 0.6353,-0.73372 2.6611,-0.43375 5.3744,0.79587 16.08553,-0.32522 16.08553,-1.68359 0,-0.21141 -0.84319,-1.14324 -1.87375,-2.07072 -2.06115,-1.85499 -4.42625,-4.90569 -4.42625,-5.70934 0,-0.31413 2.06069,-0.79392 5.31591,-1.23769 5.90759,-0.80536 11.33737,-2.48774 12.96545,-4.01725 1.51672,-1.42488 1.34326,-1.74705 -0.94063,-1.74705 -3.9466,0 -9.89257,-2.94737 -8.74223,-4.33344 0.28143,-0.33911 0.74565,-0.61656 1.03158,-0.61656 1.25235,0 8.07633,-2.49818 12.30416,-4.50441 12.78102,-6.06497 20.10233,-14.46452 22.11968,-25.37731 0.24541,-1.32757 0.29989,-2.96081 0.12107,-3.62944 -0.31476,-1.17696 -0.39642,-1.1121 -2.56255,2.0353 -4.22759,6.14268 -10.70399,11.12481 -17.50163,13.46354 -5.6685,1.95025 -15.11039,2.26268 -16.56517,0.54813 -0.77515,-0.91356 -7.09564,-12.19302 -7.09564,-12.66278 0,-0.18115 2.68312,-0.32047 5.9625,-0.3096 7.91164,0.0262 11.16728,-0.96229 14.56229,-4.42153 2.70266,-2.75379 3.60784,-5.48264 3.1006,-9.34736 -0.58493,-4.45658 -3.16068,-7.57739 -8.10039,-9.81453 -5.51512,-2.49775 -11.97746,-2.74086 -21.76388,-0.81877 -2.56513,0.5038 -4.83602,0.74386 -5.04641,0.53347 -0.5225,-0.5225 -5.81471,-13.99083 -5.81471,-14.79804 0,-0.35567 0.15187,-0.64855 0.3375,-0.65086 0.18562,-0.002 5.4,-0.50767 11.5875,-1.12305 6.1875,-0.61538 11.27596,-1.11974 11.3077,-1.12081 0.0317,-9e-4 0.82428,-1.11499 1.76121,-2.47537 3.48977,-5.06698 11.92242,-10.44419 19.43186,-12.391 4.99117,-1.29396 11.21554,-1.5635 16.77423,-0.72641 10.12353,1.52453 15.74562,3.67304 21.92298,8.37796 7.87339,5.99669 12.6102,13.7529 16.08485,26.33787 1.69653,6.14473 3.76437,11.55681 5.4142,14.1703 1.03928,1.64629 1.4063,2.7047 0.93789,2.7047 -0.10453,0 -2.52373,-1.13956 -5.37601,-2.53234 -3.02459,-1.47694 -5.48684,-2.4169 -5.90788,-2.25532 -0.60166,0.23087 -0.67327,0.74645 -0.42988,3.09484 0.75743,7.30807 2.7601,12.53407 6.32094,16.49459 1.1266,1.25305 1.9416,2.45104 1.81106,2.66221 -0.1305,0.21117 -1.67168,0.6546 -3.42484,0.98539 -1.75316,0.3308 -3.51957,0.84423 -3.92536,1.14095 -0.67376,0.49267 -0.65266,0.64774 0.24307,1.78648 3.64389,4.63246 3.56784,16.56394 -0.20886,32.76753 -1.71959,7.37769 -1.74679,10.11392 -0.1211,12.18068 1.72089,2.18772 0.97252,2.15721 -4.44817,-0.1814 -3.28001,-1.41507 -4.36837,-1.7046 -5.04553,-1.34221 -1.09055,0.58365 -3.29222,3.79714 -3.97599,5.80324 -0.72108,2.11559 -0.65215,6.22121 0.14876,8.86136 0.36857,1.21495 0.67232,2.25963 0.675,2.3215 0.0215,0.49626 -1.52741,-0.3321 -5.70239,-3.04978 -2.67189,-1.73925 -5.15536,-3.105 -5.5188,-3.03498 -0.97018,0.18684 -1.81678,3.57714 -2.13047,8.53168 -0.63504,10.03023 2.61311,18.95481 9.30378,25.56288 3.68699,3.64145 5.62957,4.87679 12.37775,7.87122 11.56293,5.13099 21.20495,7.88207 30.61269,8.73441 9.29489,0.84218 18.06449,6.05943 24.96231,14.85072 1.36125,1.73493 2.88,3.30345 3.375,3.48566 1.90494,0.7011 5.88042,0.27445 8.14761,-0.87444 2.33937,-1.18544 6.22467,-4.98083 6.87402,-6.71495 0.21105,-0.56371 0.63639,-3.04992 0.94514,-5.52492 1.18651,-9.51138 -1.21977,-21.20782 -6.01763,-29.25 -1.71702,-2.87806 -2.55136,-3.89164 -8.14959,-9.9 -6.88738,-7.39197 -12.00145,-13.75299 -17.19045,-21.38193 -2.32285,-3.41505 -7.27591,-13.16434 -8.46652,-16.66489 -2.58309,-7.5946 -2.51555,-15.28701 0.19584,-22.30798 3.0091,-7.79195 7.88355,-13.13496 15.68236,-17.18981 5.6345,-2.92956 8.29085,-3.71881 13.47885,-4.00479 10.0692,-0.55503 17.13029,2.91866 26.03097,12.80583 4.98461,5.53705 5.8694,6.15328 8.25597,5.75007 3.64032,-0.61504 5.78759,-3.12903 6.31674,-7.39552 0.13568,-1.09396 0.44919,-2.05117 0.69669,-2.12712 0.58046,-0.17813 2.63381,2.77019 3.30516,4.74579 0.80253,2.36154 0.64229,6.14123 -0.34222,8.07101 -1.10169,2.15943 -4.29296,5.1032 -7.08485,6.53529 -1.19794,0.61449 -2.56518,1.40775 -3.03835,1.76281 -0.83705,0.62815 -0.82832,0.6874 0.324,2.19817 2.35314,3.08511 3.20359,5.68863 3.21043,9.82807 0.005,3.23388 -0.18459,4.23594 -1.22926,6.48405 -1.56564,3.36924 -4.71897,7.35876 -6.12405,7.74801 -1.43919,0.3987 -6.15807,-0.50251 -8.87859,-1.69569 -5.78201,-2.53584 -8.92611,-6.95601 -9.55733,-13.43637 l -0.28494,-2.925 -1.575,0.0961 c -0.86625,0.0529 -3.41703,0.23071 -5.66842,0.3952 -2.80971,0.20529 -4.6274,0.12284 -5.79632,-0.26293 -2.53633,-0.83706 -5.01066,-3.30951 -6.02487,-6.02032 -0.91593,-2.44797 -1.36831,-5.87514 -0.84469,-6.39879 0.16726,-0.16723 1.05552,0.35573 1.97397,1.16212 3.31092,2.90705 6.1429,3.37671 9.83533,1.63112 4.06791,-1.92311 5.74065,-4.74309 5.16672,-8.7103 -0.50319,-3.47835 -3.55099,-5.58274 -9.25551,-6.39061 -8.24521,-1.16766 -14.07123,3.86174 -16.21827,14.00068 -1.15992,5.47738 -0.20389,11.07 3.10235,18.14771 4.18464,8.9582 9.62221,16.45304 19.44805,26.80614 8.33292,8.78009 13.16079,15.98571 17.14383,25.58727 4.18865,10.09724 6.08076,20.59299 5.38304,29.85975 -0.30263,4.01918 -0.52119,4.79102 -2.50628,8.85024 -2.71224,5.5463 -5.99013,10.09323 -9.33646,12.95132 -4.38039,3.74116 -7.57103,5.23975 -13.15247,6.17751 l -2.925,0.49144 0.0392,3.58817 c 0.0216,1.97347 -0.15642,7.86676 -0.39555,13.09617 -0.54265,11.86627 -0.44914,12.20445 4.8434,17.52169 3.98398,4.00257 9.88911,7.8539 16.55037,10.79415 2.16562,0.95589 3.9375,1.96056 3.9375,2.23259 0,0.27198 -1.93469,1.18426 -4.2993,2.02725 -2.36462,0.84294 -4.49388,1.7671 -4.73171,2.05371 -0.58441,0.70416 4.00082,11.36385 8.66876,20.1528 3.61597,6.80841 6.83869,11.97522 9.58117,15.36102 4.49181,5.54553 4.581,9.15701 0.36284,14.68827 -2.97806,3.9051 -12.02634,10.43411 -17.00676,12.27159 -2.82596,1.04265 -5.04824,3.11139 -5.70803,5.31365 -0.28021,0.93514 -0.64201,1.70028 -0.80401,1.70028 -0.162,0 -0.88934,-0.62559 -1.61627,-1.39019 -3.63132,-3.81946 -8.77887,-4.01076 -16.80777,-0.62455 -2.00884,0.84721 -4.81378,2.31826 -6.23317,3.26898 -1.41944,0.95071 -3.30651,2.16697 -4.19355,2.7027 l -1.6128,0.97411 -1.01385,-0.9445 z M 450.57324,375.11965 c -0.003,-0.18563 -0.30429,-1.45125 -0.66966,-2.8125 -0.82464,-3.07229 -0.8248,-5.5435 -4.5e-4,-7.85778 0.34924,-0.98052 0.55299,-1.86476 0.45279,-1.96496 -0.10021,-0.10021 -1.15421,0.41571 -2.34223,1.14648 -2.61866,1.61077 -7.25785,3.20293 -10.42593,3.57814 -2.67683,0.31703 -3.37344,0.89947 -1.54001,1.28761 3.78604,0.8015 11.95135,4.88511 12.92814,6.46559 0.34335,0.55555 1.60569,0.67995 1.59742,0.15742 z m -20.88191,21.15 c -0.18548,-0.18563 -6.14236,-0.45832 -13.2375,-0.60599 -12.38691,-0.2578 -13.04638,-0.31627 -16.57262,-1.4694 -4.52212,-1.47879 -8.43014,-4.25315 -11.10022,-7.8802 -2.01412,-2.73598 -3.30478,-5.30454 -2.87927,-5.73005 0.13435,-0.13435 1.0464,0.28654 2.02678,0.93533 4.17695,2.76417 5.7545,3.07533 17.00902,3.35488 l 10.38394,0.25793 3.9141,1.93952 c 3.64187,1.80463 12.44302,8.27506 12.44302,9.14788 0,0.47628 -1.52302,0.51468 -1.98725,0.0501 z"
         id="path3348"
         inkscape:connector-curvature="0" />
    </g>
  </g>
</svg>
